<?xml version="1.0" encoding="UTF-8" standalone="no"?>
<!DOCTYPE svg PUBLIC "-//W3C//DTD SVG 1.1//EN"
 "http://www.w3.org/Graphics/SVG/1.1/DTD/svg11.dtd">
<!-- Generated by graphviz version 2.40.1 (20161225.0304)
 -->
<!-- Title: G Pages: 1 -->
<svg width="336pt" height="422pt"
 viewBox="0.00 0.00 336.00 422.00" xmlns="http://www.w3.org/2000/svg" xmlns:xlink="http://www.w3.org/1999/xlink">
<defs>
<style>
.gitpitch-handlee { font-family: "Handlee"; }  
.gitpitch-tinos { font-family: "Tinos"; }  
.gitpitch-sedgwick-ave { font-family: "Sedgwick Ave"; }  
</style>
</defs>
<g id="graph0" class="graph" transform="scale(1 1) rotate(0) translate(4 418)">
<title>G</title>
<g id="clust1" class="cluster">
<title>cluster_0</title>
<polygon fill="#d3d3d3" stroke="#d3d3d3" points="8,-72 8,-370 160,-370 160,-72 8,-72"/>
<text text-anchor="middle" x="84" y="-350" font-family="Sedgwick Ave" font-size="20.00" fill="#000000">*process #1*</text>
</g>
<g id="clust2" class="cluster">
<title>cluster_1</title>
<polygon fill="transparent" stroke="#0000ff" points="168,-72 168,-370 320,-370 320,-72 168,-72"/>
<text text-anchor="middle" x="244" y="-350" font-family="Sedgwick Ave" font-size="20.00" fill="#000000">*process #2*</text>
</g>
<!-- a0 -->
<g id="node1" class="node">
<title>a0</title>
<ellipse fill="#ffc0cb" stroke="#ffc0cb" cx="125" cy="-314" rx="27" ry="18"/>
<text text-anchor="middle" x="125" y="-310.3" font-family="Handlee" font-size="14.00" fill="#000000">a0</text>
</g>
<!-- a1 -->
<g id="node2" class="node">
<title>a1</title>
<ellipse fill="#ffc0cb" stroke="#ffc0cb" cx="125" cy="-242" rx="27" ry="18"/>
<text text-anchor="middle" x="125" y="-238.3" font-family="Handlee" font-size="14.00" fill="#000000">a1</text>
</g>
<!-- a0&#45;&gt;a1 -->
<g id="edge1" class="edge">
<title>a0&#45;&gt;a1</title>
<path fill="none" stroke="#000000" d="M125,-295.8314C125,-288.131 125,-278.9743 125,-270.4166"/>
<polygon fill="#000000" stroke="#000000" points="128.5001,-270.4132 125,-260.4133 121.5001,-270.4133 128.5001,-270.4132"/>
</g>
<!-- a2 -->
<g id="node3" class="node">
<title>a2</title>
<ellipse fill="#ffc0cb" stroke="#ffc0cb" cx="125" cy="-170" rx="27" ry="18"/>
<text text-anchor="middle" x="125" y="-166.3" font-family="Handlee" font-size="14.00" fill="#000000">a2</text>
</g>
<!-- a1&#45;&gt;a2 -->
<g id="edge2" class="edge">
<title>a1&#45;&gt;a2</title>
<path fill="none" stroke="#000000" d="M125,-223.8314C125,-216.131 125,-206.9743 125,-198.4166"/>
<polygon fill="#000000" stroke="#000000" points="128.5001,-198.4132 125,-188.4133 121.5001,-198.4133 128.5001,-198.4132"/>
</g>
<!-- b3 -->
<g id="node8" class="node">
<title>b3</title>
<ellipse fill="#d3d3d3" stroke="#000000" cx="203" cy="-98" rx="27" ry="18"/>
<text text-anchor="middle" x="203" y="-94.3" font-family="Handlee" font-size="14.00" fill="#000000">b3</text>
</g>
<!-- a1&#45;&gt;b3 -->
<g id="edge9" class="edge">
<title>a1&#45;&gt;b3</title>
<path fill="none" stroke="#000000" d="M137.025,-225.3896C144.3659,-214.9152 153.7094,-200.9634 161,-188 172.5532,-167.4574 183.7427,-143.1938 191.6633,-125.0392"/>
<polygon fill="#000000" stroke="#000000" points="194.9684,-126.2131 195.7088,-115.6442 188.5391,-123.4446 194.9684,-126.2131"/>
</g>
<!-- a3 -->
<g id="node4" class="node">
<title>a3</title>
<ellipse fill="#ffc0cb" stroke="#ffc0cb" cx="125" cy="-98" rx="27" ry="18"/>
<text text-anchor="middle" x="125" y="-94.3" font-family="Handlee" font-size="14.00" fill="#000000">a3</text>
</g>
<!-- a2&#45;&gt;a3 -->
<g id="edge3" class="edge">
<title>a2&#45;&gt;a3</title>
<path fill="none" stroke="#000000" d="M125,-151.8314C125,-144.131 125,-134.9743 125,-126.4166"/>
<polygon fill="#000000" stroke="#000000" points="128.5001,-126.4132 125,-116.4133 121.5001,-126.4133 128.5001,-126.4132"/>
</g>
<!-- a3&#45;&gt;a0 -->
<g id="edge11" class="edge">
<title>a3&#45;&gt;a0</title>
<path fill="none" stroke="#000000" d="M110.8771,-113.7156C102.7465,-123.8532 93.3099,-137.7653 89,-152 75.0904,-197.9404 75.0904,-214.0596 89,-260 92.2661,-270.7873 98.4764,-281.3892 104.8313,-290.3037"/>
<polygon fill="#000000" stroke="#000000" points="102.0487,-292.4268 110.8771,-298.2844 107.6285,-288.1999 102.0487,-292.4268"/>
</g>
<!-- end -->
<g id="node10" class="node">
<title>end</title>
<polygon fill="none" stroke="#000000" points="186,-44 142,-44 142,0 186,0 186,-44"/>
<polyline fill="none" stroke="#000000" points="154,-44 142,-32 "/>
<polyline fill="none" stroke="#000000" points="142,-12 154,0 "/>
<polyline fill="none" stroke="#000000" points="174,0 186,-12 "/>
<polyline fill="none" stroke="#000000" points="186,-32 174,-44 "/>
<text text-anchor="middle" x="164" y="-18.3" font-family="Handlee" font-size="14.00" fill="#000000">end</text>
</g>
<!-- a3&#45;&gt;end -->
<g id="edge12" class="edge">
<title>a3&#45;&gt;end</title>
<path fill="none" stroke="#000000" d="M133.8497,-80.7544C138.0298,-72.6085 143.1519,-62.6271 147.9798,-53.2188"/>
<polygon fill="#000000" stroke="#000000" points="151.2123,-54.5857 152.6639,-44.0908 144.9844,-51.3898 151.2123,-54.5857"/>
</g>
<!-- b0 -->
<g id="node5" class="node">
<title>b0</title>
<ellipse fill="#d3d3d3" stroke="#000000" cx="203" cy="-314" rx="27" ry="18"/>
<text text-anchor="middle" x="203" y="-310.3" font-family="Handlee" font-size="14.00" fill="#000000">b0</text>
</g>
<!-- b1 -->
<g id="node6" class="node">
<title>b1</title>
<ellipse fill="#d3d3d3" stroke="#000000" cx="219" cy="-242" rx="27" ry="18"/>
<text text-anchor="middle" x="219" y="-238.3" font-family="Handlee" font-size="14.00" fill="#000000">b1</text>
</g>
<!-- b0&#45;&gt;b1 -->
<g id="edge4" class="edge">
<title>b0&#45;&gt;b1</title>
<path fill="none" stroke="#000000" d="M207.0375,-295.8314C208.7941,-287.9266 210.8917,-278.4872 212.8363,-269.7365"/>
<polygon fill="#000000" stroke="#000000" points="216.2665,-270.4346 215.0192,-259.9134 209.4332,-268.916 216.2665,-270.4346"/>
</g>
<!-- b2 -->
<g id="node7" class="node">
<title>b2</title>
<ellipse fill="#d3d3d3" stroke="#000000" cx="235" cy="-170" rx="27" ry="18"/>
<text text-anchor="middle" x="235" y="-166.3" font-family="Handlee" font-size="14.00" fill="#000000">b2</text>
</g>
<!-- b1&#45;&gt;b2 -->
<g id="edge5" class="edge">
<title>b1&#45;&gt;b2</title>
<path fill="none" stroke="#000000" d="M223.0375,-223.8314C224.7941,-215.9266 226.8917,-206.4872 228.8363,-197.7365"/>
<polygon fill="#000000" stroke="#000000" points="232.2665,-198.4346 231.0192,-187.9134 225.4332,-196.916 232.2665,-198.4346"/>
</g>
<!-- b2&#45;&gt;a3 -->
<g id="edge10" class="edge">
<title>b2&#45;&gt;a3</title>
<path fill="none" stroke="#000000" d="M215.5874,-157.2936C198.258,-145.9507 172.6682,-129.201 153.1028,-116.3946"/>
<polygon fill="#000000" stroke="#000000" points="154.8724,-113.3698 144.5885,-110.8216 151.0387,-119.2267 154.8724,-113.3698"/>
</g>
<!-- b2&#45;&gt;b3 -->
<g id="edge6" class="edge">
<title>b2&#45;&gt;b3</title>
<path fill="none" stroke="#000000" d="M227.2537,-152.5708C223.5196,-144.1691 218.9596,-133.9091 214.8055,-124.5623"/>
<polygon fill="#000000" stroke="#000000" points="217.9348,-122.9853 210.675,-115.2687 211.5381,-125.8283 217.9348,-122.9853"/>
</g>
<!-- b3&#45;&gt;end -->
<g id="edge13" class="edge">
<title>b3&#45;&gt;end</title>
<path fill="none" stroke="#000000" d="M194.1503,-80.7544C189.9702,-72.6085 184.8481,-62.6271 180.0202,-53.2188"/>
<polygon fill="#000000" stroke="#000000" points="183.0156,-51.3898 175.3361,-44.0908 176.7877,-54.5857 183.0156,-51.3898"/>
</g>
<!-- start -->
<g id="node9" class="node">
<title>start</title>
<polygon fill="none" stroke="#000000" points="164,-414 118.0842,-396 164,-378 209.9158,-396 164,-414"/>
<polyline fill="none" stroke="#000000" points="129.2564,-400.3797 129.2564,-391.6203 "/>
<polyline fill="none" stroke="#000000" points="152.8278,-382.3797 175.1722,-382.3797 "/>
<polyline fill="none" stroke="#000000" points="198.7436,-391.6203 198.7436,-400.3797 "/>
<polyline fill="none" stroke="#000000" points="175.1722,-409.6203 152.8278,-409.6203 "/>
<text text-anchor="middle" x="164" y="-392.3" font-family="Handlee" font-size="14.00" fill="#000000">start</text>
</g>
<!-- start&#45;&gt;a0 -->
<g id="edge7" class="edge">
<title>start&#45;&gt;a0</title>
<path fill="none" stroke="#000000" d="M156.6644,-380.5764C151.3022,-369.3021 143.8968,-353.7317 137.5958,-340.4834"/>
<polygon fill="#000000" stroke="#000000" points="140.7036,-338.8689 133.2478,-331.3415 134.3822,-341.8755 140.7036,-338.8689"/>
</g>
<!-- start&#45;&gt;b0 -->
<g id="edge8" class="edge">
<title>start&#45;&gt;b0</title>
<path fill="none" stroke="#000000" d="M171.3356,-380.5764C176.6978,-369.3021 184.1032,-353.7317 190.4042,-340.4834"/>
<polygon fill="#000000" stroke="#000000" points="193.6178,-341.8755 194.7522,-331.3415 187.2964,-338.8689 193.6178,-341.8755"/>
</g>
</g>
</svg>
