<svg id="Text" xmlns="http://www.w3.org/2000/svg" viewBox="0 0 105 116.55"><defs><style>.cls-1{fill:#e48436;}</style></defs><title>gp-icon</title><path class="cls-1" d="M98.1,0h-68L46.15,16.07a9.06,9.06,0,0,1,5.77-.22,9.26,9.26,0,0,1,6.44,6.91A9.06,9.06,0,0,1,58,27.9l9.84,10.56a9.21,9.21,0,1,1-5,4.94L53.2,33.05l-.35.14V60.62a9.21,9.21,0,1,1-7,0V33.19A9.18,9.18,0,0,1,41,20.85L20.15,0H6.9A6.9,6.9,0,0,0,0,6.9V86.65a6.9,6.9,0,0,0,6.9,6.9H54.14l-4.6,23L81,93.55H98.1a6.9,6.9,0,0,0,6.9-6.9V6.9A6.9,6.9,0,0,0,98.1,0Z"/></svg>