<svg id="Text" xmlns="http://www.w3.org/2000/svg" viewBox="0 0 583.07 117.23"><defs><style>.cls-1{fill:#fff;}.cls-2{fill:#e48436;}</style></defs><title>gp-logo</title><path class="cls-1" d="M176.7,96.07a39.47,39.47,0,0,0,18.08-3.91V75.6h-11.4a3.56,3.56,0,0,1-2.58-.91,3,3,0,0,1-.94-2.24V62.87h30.3V99.73a50,50,0,0,1-7.21,4.38,46,46,0,0,1-8,3.06,61.37,61.37,0,0,1-9.1,1.8,85.74,85.74,0,0,1-10.46.6A47.5,47.5,0,0,1,157,106.09a43,43,0,0,1-24-24.38A49.83,49.83,0,0,1,129.58,63a51.45,51.45,0,0,1,3.34-18.84A41.48,41.48,0,0,1,157.3,19.84,53.9,53.9,0,0,1,177,16.44a51.25,51.25,0,0,1,19.31,3.31,44.54,44.54,0,0,1,13.83,8.6L205.18,36a4.37,4.37,0,0,1-3.84,2.33,5.71,5.71,0,0,1-3.09-1q-2-1.2-4.13-2.39a28.08,28.08,0,0,0-4.66-2.08,38.1,38.1,0,0,0-5.73-1.45,42.18,42.18,0,0,0-7.34-.57,31.45,31.45,0,0,0-12.19,2.27,25.79,25.79,0,0,0-9.29,6.49A29.24,29.24,0,0,0,149,49.77,39.74,39.74,0,0,0,146.9,63a41.32,41.32,0,0,0,2.21,14,29.39,29.39,0,0,0,6.17,10.36,26.58,26.58,0,0,0,9.45,6.46A31.38,31.38,0,0,0,176.7,96.07Z" transform="translate(-3 -14.93)"/><path class="cls-1" d="M244,25.07a8.87,8.87,0,0,1-.82,3.78,10.27,10.27,0,0,1-5.35,5.2,9.75,9.75,0,0,1-3.91.79,9.37,9.37,0,0,1-3.81-.79A10.08,10.08,0,0,1,227,31.94a10.2,10.2,0,0,1-2.11-3.09,9.15,9.15,0,0,1-.79-3.78,9.75,9.75,0,0,1,.79-3.91A10,10,0,0,1,227,18a10.1,10.1,0,0,1,3.12-2.11,9.39,9.39,0,0,1,3.81-.79,9.77,9.77,0,0,1,3.91.79A10.41,10.41,0,0,1,241,18a10.18,10.18,0,0,1,2.17,3.15A9.45,9.45,0,0,1,244,25.07Zm-2.33,18.84v64.64H226.09V43.91Z" transform="translate(-3 -14.93)"/><path class="cls-1" d="M280.46,109.56q-8.38,0-12.92-4.76T263,91.66V55.57h-6.55a3,3,0,0,1-3.09-3.28V46.12l10.4-1.7L267,26.77a3.12,3.12,0,0,1,1.17-2,3.7,3.7,0,0,1,2.3-.69h8.06V44.48h17V55.57h-17v35a6.87,6.87,0,0,0,1.51,4.73,5.13,5.13,0,0,0,4,1.7,7.32,7.32,0,0,0,2.43-.35,13.32,13.32,0,0,0,1.7-.72q.72-.38,1.29-.72a2.17,2.17,0,0,1,1.13-.35,1.79,1.79,0,0,1,1.13.35,5.35,5.35,0,0,1,.94,1l4.66,7.56a23.55,23.55,0,0,1-7.81,4.28A29.09,29.09,0,0,1,280.46,109.56Z" transform="translate(-3 -14.93)"/><path class="cls-2" d="M326.39,76.48v32.07H309.44V17.45h29.67a52,52,0,0,1,15.81,2.14,30.47,30.47,0,0,1,11,6,23.45,23.45,0,0,1,6.43,9.2,32.12,32.12,0,0,1,2.08,11.72,32.37,32.37,0,0,1-2.21,12.13,25.18,25.18,0,0,1-6.62,9.48,30.79,30.79,0,0,1-11,6.17,49.07,49.07,0,0,1-15.5,2.21Zm0-13.23h12.73a25.52,25.52,0,0,0,8.13-1.17A15.1,15.1,0,0,0,353,58.75a13.71,13.71,0,0,0,3.4-5.29,20.26,20.26,0,0,0,1.13-7,18.38,18.38,0,0,0-1.13-6.61,13.09,13.09,0,0,0-3.4-5,15.14,15.14,0,0,0-5.73-3.18,26.9,26.9,0,0,0-8.13-1.1H326.39Z" transform="translate(-3 -14.93)"/><path class="cls-2" d="M405.64,25.07a8.88,8.88,0,0,1-.82,3.78,10.28,10.28,0,0,1-5.36,5.2,9.75,9.75,0,0,1-3.91.79,9.37,9.37,0,0,1-3.81-.79,10.09,10.09,0,0,1-3.12-2.11,10.2,10.2,0,0,1-2.11-3.09,9.16,9.16,0,0,1-.79-3.78,9.76,9.76,0,0,1,.79-3.91A10,10,0,0,1,388.63,18a10.11,10.11,0,0,1,3.12-2.11,9.39,9.39,0,0,1,3.81-.79,9.77,9.77,0,0,1,3.91.79A10.41,10.41,0,0,1,402.65,18a10.19,10.19,0,0,1,2.17,3.15A9.46,9.46,0,0,1,405.64,25.07Zm-2.33,18.84v64.64H387.75V43.91Z" transform="translate(-3 -14.93)"/><path class="cls-2" d="M442.12,109.56q-8.38,0-12.92-4.76t-4.54-13.14V55.57h-6.55A3,3,0,0,1,415,52.29V46.12l10.39-1.7,3.28-17.64a3.11,3.11,0,0,1,1.17-2,3.69,3.69,0,0,1,2.3-.69h8.06V44.48h17V55.57h-17v35a6.87,6.87,0,0,0,1.51,4.73,5.13,5.13,0,0,0,4,1.7,7.32,7.32,0,0,0,2.43-.35,13.33,13.33,0,0,0,1.7-.72q.72-.38,1.29-.72a2.17,2.17,0,0,1,1.13-.35,1.79,1.79,0,0,1,1.13.35,5.32,5.32,0,0,1,.95,1l4.66,7.56a23.56,23.56,0,0,1-7.81,4.28A29.08,29.08,0,0,1,442.12,109.56Z" transform="translate(-3 -14.93)"/><path class="cls-2" d="M515.07,57.58A7.77,7.77,0,0,1,513.72,59a3.12,3.12,0,0,1-1.92.5,4.28,4.28,0,0,1-2.33-.72q-1.13-.72-2.71-1.64A20.33,20.33,0,0,0,503,55.47a17.25,17.25,0,0,0-5.39-.72,16.43,16.43,0,0,0-7.18,1.48,13.61,13.61,0,0,0-5.13,4.25,19.15,19.15,0,0,0-3.06,6.71,36,36,0,0,0-1,8.91,34.93,34.93,0,0,0,1.1,9.2,19.63,19.63,0,0,0,3.18,6.77,13.69,13.69,0,0,0,5,4.16,15.27,15.27,0,0,0,6.68,1.42,16.55,16.55,0,0,0,6-.91,19,19,0,0,0,3.87-2q1.57-1.1,2.74-2a4.14,4.14,0,0,1,2.62-.91,3.16,3.16,0,0,1,2.83,1.45l4.47,5.67a28.13,28.13,0,0,1-5.61,5.07,30.33,30.33,0,0,1-6.27,3.28,31.89,31.89,0,0,1-6.71,1.73,47.67,47.67,0,0,1-6.87.5,28.68,28.68,0,0,1-11.28-2.24,26.3,26.3,0,0,1-9.23-6.52,31.39,31.39,0,0,1-6.24-10.49,40.5,40.5,0,0,1-2.3-14.14,41.11,41.11,0,0,1,2-13.2,29.88,29.88,0,0,1,6-10.52,27.58,27.58,0,0,1,9.83-7,33.87,33.87,0,0,1,13.48-2.52,32.09,32.09,0,0,1,12.69,2.33,31,31,0,0,1,9.8,6.68Z" transform="translate(-3 -14.93)"/><path class="cls-2" d="M529.75,108.55V14.93h15.56v36a33,33,0,0,1,8.32-5.8,24.1,24.1,0,0,1,10.65-2.21,23.18,23.18,0,0,1,9.39,1.8,18.55,18.55,0,0,1,6.84,5,22.17,22.17,0,0,1,4.16,7.75,33,33,0,0,1,1.42,9.92v41.14H570.51V67.41q0-5.92-2.74-9.17T559.55,55A16.21,16.21,0,0,0,552,56.83a27.1,27.1,0,0,0-6.68,5v46.75Z" transform="translate(-3 -14.93)"/><path class="cls-2" d="M101.1,15.62h-68L49.15,31.68a9.06,9.06,0,0,1,5.77-.22,9.26,9.26,0,0,1,6.44,6.91A9.06,9.06,0,0,1,61,43.51l9.84,10.56a9.21,9.21,0,1,1-5,4.94L56.2,48.67l-.35.14V76.24a9.21,9.21,0,1,1-7,0V48.81A9.18,9.18,0,0,1,44,36.47L23.15,15.62H9.9A6.9,6.9,0,0,0,3,22.51v79.76a6.9,6.9,0,0,0,6.9,6.9H57.14l-4.6,23,31.47-23H101.1a6.9,6.9,0,0,0,6.9-6.9V22.51A6.9,6.9,0,0,0,101.1,15.62Z" transform="translate(-3 -14.93)"/></svg>