<svg id="Text" xmlns="http://www.w3.org/2000/svg" viewBox="0 0 668.69 222.73"><defs><style>.cls-1{fill:#999;}.cls-2{fill:#fff;}.cls-3{fill:#e48436;}</style></defs><title>gp-splash-logo-alt-geek</title><path class="cls-1" d="M319.33,421.73l.35.92q.17-.48.36-.92t.43-.89l8.37-15.21a1,1,0,0,1,.47-.48,2.14,2.14,0,0,1,.69-.09h2.47v24.74h-2.94V411.63q0-.36,0-.78t.05-.85l-8.48,15.47a1.33,1.33,0,0,1-1.21.78h-.48a1.33,1.33,0,0,1-1.21-.78L309.57,410q.05.45.08.88t0,.79v18.18h-2.94V405.06h2.47a2.14,2.14,0,0,1,.69.09,1,1,0,0,1,.47.48l8.55,15.23A6.48,6.48,0,0,1,319.33,421.73Z" transform="translate(-261.35 -271.16)"/><path class="cls-1" d="M350.87,429.81H349.5a1.63,1.63,0,0,1-.73-.14.77.77,0,0,1-.36-.59l-.35-1.62q-.69.62-1.35,1.11a7.64,7.64,0,0,1-1.38.83,7.16,7.16,0,0,1-1.54.51,8.86,8.86,0,0,1-1.82.17,6.2,6.2,0,0,1-1.91-.29,4.35,4.35,0,0,1-1.55-.86,4.07,4.07,0,0,1-1-1.45,5.07,5.07,0,0,1-.39-2.07,3.87,3.87,0,0,1,.57-2,5,5,0,0,1,1.84-1.71,11.93,11.93,0,0,1,3.32-1.22,22.63,22.63,0,0,1,5-.48v-1.37a4.76,4.76,0,0,0-.87-3.1,3.16,3.16,0,0,0-2.58-1.05,5.47,5.47,0,0,0-1.89.28,7.11,7.11,0,0,0-1.33.64c-.37.24-.7.45-1,.64a1.4,1.4,0,0,1-.8.29.92.92,0,0,1-.54-.16,1.25,1.25,0,0,1-.37-.41l-.55-1a10,10,0,0,1,3.13-2.09,9.65,9.65,0,0,1,3.71-.69,6.62,6.62,0,0,1,2.61.48,5.34,5.34,0,0,1,1.92,1.35,5.7,5.7,0,0,1,1.17,2.09,8.71,8.71,0,0,1,.4,2.69Zm-8-1.88a6.27,6.27,0,0,0,1.48-.16,5.82,5.82,0,0,0,1.27-.47,6.66,6.66,0,0,0,1.14-.73,9.8,9.8,0,0,0,1.06-1V422a20.69,20.69,0,0,0-3.61.27,10.1,10.1,0,0,0-2.42.7,3.36,3.36,0,0,0-1.36,1,2.21,2.21,0,0,0-.42,1.32,2.93,2.93,0,0,0,.22,1.2,2.26,2.26,0,0,0,.6.82,2.37,2.37,0,0,0,.9.47A4.11,4.11,0,0,0,342.89,427.93Z" transform="translate(-261.35 -271.16)"/><path class="cls-1" d="M355.53,429.81V412.32h1.76a1,1,0,0,1,.69.19,1.17,1.17,0,0,1,.26.66l.21,2.73a8,8,0,0,1,2.22-2.86,5.23,5.23,0,0,1,4.41-.86,4.6,4.6,0,0,1,1.09.46l-.4,2.3a.52.52,0,0,1-.54.43,2.68,2.68,0,0,1-.74-.16,4.68,4.68,0,0,0-1.4-.16,4,4,0,0,0-2.69.93,7,7,0,0,0-1.8,2.71v11.14Z" transform="translate(-261.35 -271.16)"/><path class="cls-1" d="M372.64,404.37v15h.79a1.47,1.47,0,0,0,.57-.09,1.59,1.59,0,0,0,.5-.39l5.53-5.92a3,3,0,0,1,.52-.45,1.23,1.23,0,0,1,.69-.17H384l-6.44,6.85a6,6,0,0,1-.48.52,2.83,2.83,0,0,1-.53.4,3.16,3.16,0,0,1,.56.47,4.49,4.49,0,0,1,.48.61l6.84,8.63h-2.76a1.33,1.33,0,0,1-.65-.15,1.69,1.69,0,0,1-.51-.46L374.8,422a1.35,1.35,0,0,0-.52-.47,2.06,2.06,0,0,0-.78-.11h-.86v8.36h-3.09V404.37Z" transform="translate(-261.35 -271.16)"/><path class="cls-1" d="M398.82,429.81a.78.78,0,0,1-.83-.64l-.28-2.12a9.22,9.22,0,0,1-2.56,2.18,6.57,6.57,0,0,1-3.31.82,6.31,6.31,0,0,1-2.73-.58,5.65,5.65,0,0,1-2.09-1.7,8.09,8.09,0,0,1-1.33-2.8,14.39,14.39,0,0,1-.47-3.85,12.07,12.07,0,0,1,.52-3.6,8.76,8.76,0,0,1,1.49-2.89,6.85,6.85,0,0,1,5.55-2.62,6.33,6.33,0,0,1,2.75.54,6.59,6.59,0,0,1,2,1.53v-9.7h3.07v25.43Zm-6-2.25a5,5,0,0,0,2.63-.69,7.58,7.58,0,0,0,2.08-2v-8.46a4.87,4.87,0,0,0-1.86-1.6,5.36,5.36,0,0,0-2.24-.46,4.43,4.43,0,0,0-3.76,1.74,8.15,8.15,0,0,0-1.31,5,12.64,12.64,0,0,0,.29,2.93,5.62,5.62,0,0,0,.86,2,3.39,3.39,0,0,0,1.4,1.15A4.69,4.69,0,0,0,392.86,427.56Z" transform="translate(-261.35 -271.16)"/><path class="cls-1" d="M412.89,412a9,9,0,0,1,3.46.64,7.3,7.3,0,0,1,2.62,1.81,8,8,0,0,1,1.66,2.84,12.28,12.28,0,0,1,0,7.45,8,8,0,0,1-1.66,2.83,7.21,7.21,0,0,1-2.62,1.8,9.82,9.82,0,0,1-6.92,0,7.28,7.28,0,0,1-2.63-1.8,8.07,8.07,0,0,1-1.68-2.83,12.12,12.12,0,0,1,0-7.45,8.06,8.06,0,0,1,1.68-2.84,7.38,7.38,0,0,1,2.63-1.81A9,9,0,0,1,412.89,412Zm0,15.61a4.49,4.49,0,0,0,3.87-1.74,9.87,9.87,0,0,0,0-9.71,4.48,4.48,0,0,0-3.87-1.74,5.37,5.37,0,0,0-2.28.45A4.27,4.27,0,0,0,409,416.2a5.75,5.75,0,0,0-1,2.08,12.3,12.3,0,0,0,0,5.57,5.67,5.67,0,0,0,1,2.06,4.29,4.29,0,0,0,1.61,1.29A5.36,5.36,0,0,0,412.89,427.65Z" transform="translate(-261.35 -271.16)"/><path class="cls-1" d="M422.73,412.32h2.42a1,1,0,0,1,.62.19,1,1,0,0,1,.33.45l3.35,11.26q.14.62.26,1.2t.21,1.17q.14-.59.31-1.17l.36-1.2,3.69-11.33a.91.91,0,0,1,.3-.43.85.85,0,0,1,.54-.17h1.33a.91.91,0,0,1,.57.17.9.9,0,0,1,.31.43l3.61,11.33q.19.6.34,1.19l.28,1.16q.09-.57.22-1.19t.29-1.16L445.51,413a.9.9,0,0,1,.33-.46.92.92,0,0,1,.57-.18h2.31l-5.66,17.49h-2.43q-.45,0-.62-.59l-3.87-11.86a6.63,6.63,0,0,1-.22-.8l-.17-.8-.17.81a6.61,6.61,0,0,1-.22.81l-3.92,11.84a.72.72,0,0,1-.71.59h-2.31Z" transform="translate(-261.35 -271.16)"/><path class="cls-1" d="M451.46,429.81V412.32h1.83a.78.78,0,0,1,.83.64l.24,1.9a9.83,9.83,0,0,1,2.55-2,6.62,6.62,0,0,1,3.25-.78,6.32,6.32,0,0,1,2.53.48,4.89,4.89,0,0,1,1.83,1.35,6,6,0,0,1,1.11,2.1,9.12,9.12,0,0,1,.38,2.71v11.14h-3.07V418.67a4.71,4.71,0,0,0-.91-3.08,3.39,3.39,0,0,0-2.77-1.1,5.16,5.16,0,0,0-2.55.66,8.39,8.39,0,0,0-2.18,1.78v12.88Z" transform="translate(-261.35 -271.16)"/><path class="cls-1" d="M481.49,420.55v9.25h-3.33V405.06h7.3a13.7,13.7,0,0,1,4.08.54,7.84,7.84,0,0,1,2.88,1.55,6.24,6.24,0,0,1,1.7,2.42,8.51,8.51,0,0,1,.56,3.16,8.05,8.05,0,0,1-.6,3.16,6.79,6.79,0,0,1-1.77,2.47,8.22,8.22,0,0,1-2.89,1.62,12.42,12.42,0,0,1-4,.58Zm0-2.66h4a7.72,7.72,0,0,0,2.53-.38,5.19,5.19,0,0,0,1.84-1.06,4.42,4.42,0,0,0,1.12-1.63,5.58,5.58,0,0,0,.38-2.09,4.75,4.75,0,0,0-1.46-3.7,6.37,6.37,0,0,0-4.41-1.33h-4Z" transform="translate(-261.35 -271.16)"/><path class="cls-1" d="M498.43,429.81V412.32h1.76a1,1,0,0,1,.69.19,1.17,1.17,0,0,1,.26.66l.21,2.73a8,8,0,0,1,2.22-2.86,5.23,5.23,0,0,1,4.41-.86,4.6,4.6,0,0,1,1.09.46l-.4,2.3a.52.52,0,0,1-.54.43,2.68,2.68,0,0,1-.74-.16A4.68,4.68,0,0,0,506,415a4,4,0,0,0-2.69.93,7,7,0,0,0-1.8,2.71v11.14Z" transform="translate(-261.35 -271.16)"/><path class="cls-1" d="M519.27,412a7.81,7.81,0,0,1,2.9.53,6.51,6.51,0,0,1,2.3,1.52,6.93,6.93,0,0,1,1.51,2.45,9.47,9.47,0,0,1,.54,3.32,2,2,0,0,1-.16,1,.65.65,0,0,1-.59.24H514.14a9.65,9.65,0,0,0,.45,2.88,5.89,5.89,0,0,0,1.14,2,4.57,4.57,0,0,0,1.73,1.23,5.93,5.93,0,0,0,2.24.41,6.58,6.58,0,0,0,2-.27,9.44,9.44,0,0,0,1.44-.58,10.89,10.89,0,0,0,1-.58,1.34,1.34,0,0,1,.7-.27.68.68,0,0,1,.59.29l.86,1.12a5.82,5.82,0,0,1-1.36,1.2,8.5,8.5,0,0,1-1.7.84,10.81,10.81,0,0,1-1.87.49,11.55,11.55,0,0,1-1.92.16,8.9,8.9,0,0,1-3.34-.61,7.32,7.32,0,0,1-2.64-1.8,8.23,8.23,0,0,1-1.74-2.93,11.9,11.9,0,0,1-.62-4,10.2,10.2,0,0,1,.56-3.42,8.06,8.06,0,0,1,1.61-2.75,7.43,7.43,0,0,1,2.57-1.83A8.44,8.44,0,0,1,519.27,412Zm.07,2.26a4.72,4.72,0,0,0-3.51,1.29,6.06,6.06,0,0,0-1.59,3.57h9.51a6.22,6.22,0,0,0-.29-2,4.36,4.36,0,0,0-.86-1.54,3.87,3.87,0,0,0-1.39-1A4.69,4.69,0,0,0,519.34,414.3Z" transform="translate(-261.35 -271.16)"/><path class="cls-1" d="M540.45,415.2a.68.68,0,0,1-.64.38,1.21,1.21,0,0,1-.59-.19q-.33-.19-.8-.42a7.58,7.58,0,0,0-1.13-.43,5.4,5.4,0,0,0-1.55-.2,4.58,4.58,0,0,0-1.4.2,3.36,3.36,0,0,0-1.06.54,2.41,2.41,0,0,0-.67.8,2.16,2.16,0,0,0-.23,1,1.65,1.65,0,0,0,.39,1.12,3.37,3.37,0,0,0,1,.78,8.94,8.94,0,0,0,1.45.58l1.67.54q.85.29,1.67.63a6,6,0,0,1,1.45.86,3.94,3.94,0,0,1,1,1.27,3.89,3.89,0,0,1,.39,1.8,5.72,5.72,0,0,1-.43,2.24,4.89,4.89,0,0,1-1.28,1.78,6.18,6.18,0,0,1-2.07,1.18,8.53,8.53,0,0,1-2.83.43,8.83,8.83,0,0,1-3.32-.6A8.4,8.4,0,0,1,529,428l.73-1.17a1.06,1.06,0,0,1,.33-.35.92.92,0,0,1,.5-.12,1.16,1.16,0,0,1,.66.24q.34.24.84.54a6.4,6.4,0,0,0,1.19.54,5.43,5.43,0,0,0,1.75.24,4.81,4.81,0,0,0,1.57-.23,3.3,3.3,0,0,0,1.12-.63,2.51,2.51,0,0,0,.66-.92,2.84,2.84,0,0,0,.22-1.11,1.83,1.83,0,0,0-.39-1.2,3.29,3.29,0,0,0-1-.81,8.36,8.36,0,0,0-1.46-.59l-1.67-.53q-.85-.28-1.67-.63a5.88,5.88,0,0,1-1.46-.89,4,4,0,0,1-1-1.32,4.27,4.27,0,0,1-.39-1.91,4.65,4.65,0,0,1,.41-1.92,4.73,4.73,0,0,1,1.21-1.62,6,6,0,0,1,2-1.11,7.81,7.81,0,0,1,2.64-.41,8.36,8.36,0,0,1,3.1.54,7.35,7.35,0,0,1,2.37,1.49Z" transform="translate(-261.35 -271.16)"/><path class="cls-1" d="M552.35,412a7.81,7.81,0,0,1,2.9.53,6.51,6.51,0,0,1,2.3,1.52,6.93,6.93,0,0,1,1.51,2.45,9.47,9.47,0,0,1,.54,3.32,2,2,0,0,1-.16,1,.65.65,0,0,1-.59.24H547.22a9.65,9.65,0,0,0,.45,2.88,5.89,5.89,0,0,0,1.14,2,4.57,4.57,0,0,0,1.73,1.23,5.93,5.93,0,0,0,2.24.41,6.58,6.58,0,0,0,2-.27,9.44,9.44,0,0,0,1.44-.58,10.89,10.89,0,0,0,1-.58,1.34,1.34,0,0,1,.7-.27.68.68,0,0,1,.59.29l.86,1.12a5.82,5.82,0,0,1-1.36,1.2,8.5,8.5,0,0,1-1.7.84,10.81,10.81,0,0,1-1.87.49,11.55,11.55,0,0,1-1.92.16,8.9,8.9,0,0,1-3.34-.61,7.32,7.32,0,0,1-2.64-1.8,8.23,8.23,0,0,1-1.74-2.93,11.9,11.9,0,0,1-.62-4,10.2,10.2,0,0,1,.56-3.42,8.06,8.06,0,0,1,1.61-2.75,7.43,7.43,0,0,1,2.57-1.83A8.44,8.44,0,0,1,552.35,412Zm.07,2.26a4.72,4.72,0,0,0-3.51,1.29,6.06,6.06,0,0,0-1.59,3.57h9.51a6.22,6.22,0,0,0-.29-2,4.36,4.36,0,0,0-.86-1.54,3.87,3.87,0,0,0-1.39-1A4.69,4.69,0,0,0,552.42,414.3Z" transform="translate(-261.35 -271.16)"/><path class="cls-1" d="M563.52,429.81V412.32h1.83a.78.78,0,0,1,.83.64l.24,1.9a9.83,9.83,0,0,1,2.55-2,6.62,6.62,0,0,1,3.25-.78,6.32,6.32,0,0,1,2.53.48,4.89,4.89,0,0,1,1.83,1.35,6,6,0,0,1,1.11,2.1,9.12,9.12,0,0,1,.38,2.71v11.14H575V418.67a4.71,4.71,0,0,0-.91-3.08,3.39,3.39,0,0,0-2.77-1.1,5.16,5.16,0,0,0-2.55.66,8.39,8.39,0,0,0-2.18,1.78v12.88Z" transform="translate(-261.35 -271.16)"/><path class="cls-1" d="M588,430.08a4.22,4.22,0,0,1-3.19-1.16,4.61,4.61,0,0,1-1.11-3.33V414.89h-2.11a.69.69,0,0,1-.47-.16.64.64,0,0,1-.19-.51V413l2.87-.36.71-5.4a.65.65,0,0,1,.22-.42.71.71,0,0,1,.48-.16h1.55v6h5v2.23h-5v10.5a2.23,2.23,0,0,0,.54,1.64,1.87,1.87,0,0,0,1.38.54,2.45,2.45,0,0,0,.84-.13,3.65,3.65,0,0,0,.61-.29l.44-.29a.58.58,0,0,1,.32-.13.53.53,0,0,1,.43.29l.9,1.47a5.73,5.73,0,0,1-1.92,1.17A6.53,6.53,0,0,1,588,430.08Z" transform="translate(-261.35 -271.16)"/><path class="cls-1" d="M608.45,429.81h-1.36a1.63,1.63,0,0,1-.73-.14.76.76,0,0,1-.36-.59l-.35-1.62q-.69.62-1.35,1.11a7.63,7.63,0,0,1-1.38.83,7.15,7.15,0,0,1-1.54.51,8.86,8.86,0,0,1-1.82.17,6.2,6.2,0,0,1-1.91-.29,4.35,4.35,0,0,1-1.55-.86,4.08,4.08,0,0,1-1-1.45,5.07,5.07,0,0,1-.39-2.07,3.87,3.87,0,0,1,.57-2,5,5,0,0,1,1.84-1.71,11.94,11.94,0,0,1,3.32-1.22,22.64,22.64,0,0,1,5-.48v-1.37a4.76,4.76,0,0,0-.87-3.1,3.16,3.16,0,0,0-2.58-1.05,5.47,5.47,0,0,0-1.89.28,7.08,7.08,0,0,0-1.33.64c-.37.24-.7.45-1,.64a1.4,1.4,0,0,1-.8.29.92.92,0,0,1-.54-.16,1.25,1.25,0,0,1-.37-.41l-.55-1a10,10,0,0,1,3.13-2.09,9.65,9.65,0,0,1,3.71-.69,6.63,6.63,0,0,1,2.61.48,5.34,5.34,0,0,1,1.92,1.35,5.69,5.69,0,0,1,1.17,2.09,8.71,8.71,0,0,1,.4,2.69Zm-8-1.88a6.26,6.26,0,0,0,1.48-.16,5.83,5.83,0,0,0,1.27-.47,6.66,6.66,0,0,0,1.14-.73,9.8,9.8,0,0,0,1.06-1V422a20.69,20.69,0,0,0-3.61.27,10.09,10.09,0,0,0-2.42.7,3.36,3.36,0,0,0-1.36,1,2.21,2.21,0,0,0-.42,1.32,2.93,2.93,0,0,0,.22,1.2,2.26,2.26,0,0,0,.6.82,2.37,2.37,0,0,0,.9.47A4.1,4.1,0,0,0,600.47,427.93Z" transform="translate(-261.35 -271.16)"/><path class="cls-1" d="M618.41,430.08a4.22,4.22,0,0,1-3.19-1.16,4.62,4.62,0,0,1-1.11-3.33V414.89H612a.69.69,0,0,1-.47-.16.64.64,0,0,1-.19-.51V413l2.87-.36.71-5.4a.65.65,0,0,1,.22-.42.71.71,0,0,1,.48-.16h1.55v6h5v2.23h-5v10.5a2.23,2.23,0,0,0,.54,1.64,1.87,1.87,0,0,0,1.38.54,2.45,2.45,0,0,0,.84-.13,3.64,3.64,0,0,0,.61-.29l.44-.29a.57.57,0,0,1,.32-.13.53.53,0,0,1,.43.29l.9,1.47a5.73,5.73,0,0,1-1.92,1.17A6.53,6.53,0,0,1,618.41,430.08Z" transform="translate(-261.35 -271.16)"/><path class="cls-1" d="M630.1,406.83a2,2,0,0,1-.18.84,2.42,2.42,0,0,1-.48.69,2.24,2.24,0,0,1-.7.48,2.1,2.1,0,0,1-.85.17,2,2,0,0,1-.84-.17,2.27,2.27,0,0,1-.69-.48,2.25,2.25,0,0,1-.47-.69,2,2,0,0,1-.17-.84,2.16,2.16,0,0,1,.17-.85,2.19,2.19,0,0,1,.47-.71,2.27,2.27,0,0,1,.69-.48,2,2,0,0,1,.84-.17,2.1,2.1,0,0,1,.85.17,2.24,2.24,0,0,1,.7.48,2.35,2.35,0,0,1,.48.71A2.07,2.07,0,0,1,630.1,406.83Zm-.69,5.49v17.49h-3.07V412.32Z" transform="translate(-261.35 -271.16)"/><path class="cls-1" d="M641.91,412a9,9,0,0,1,3.46.64,7.31,7.31,0,0,1,2.62,1.81,8,8,0,0,1,1.66,2.84,12.27,12.27,0,0,1,0,7.45,8,8,0,0,1-1.66,2.83,7.21,7.21,0,0,1-2.62,1.8,9.82,9.82,0,0,1-6.92,0,7.28,7.28,0,0,1-2.63-1.8,8.07,8.07,0,0,1-1.67-2.83,12.12,12.12,0,0,1,0-7.45,8.06,8.06,0,0,1,1.67-2.84,7.38,7.38,0,0,1,2.63-1.81A9,9,0,0,1,641.91,412Zm0,15.61a4.49,4.49,0,0,0,3.87-1.74,9.87,9.87,0,0,0,0-9.71,4.48,4.48,0,0,0-3.87-1.74,5.37,5.37,0,0,0-2.28.45A4.27,4.27,0,0,0,638,416.2a5.75,5.75,0,0,0-1,2.08,12.3,12.3,0,0,0,0,5.57,5.67,5.67,0,0,0,1,2.06,4.29,4.29,0,0,0,1.62,1.29A5.36,5.36,0,0,0,641.91,427.65Z" transform="translate(-261.35 -271.16)"/><path class="cls-1" d="M654,429.81V412.32h1.83a.78.78,0,0,1,.83.64l.24,1.9a9.83,9.83,0,0,1,2.55-2,6.63,6.63,0,0,1,3.25-.78,6.32,6.32,0,0,1,2.53.48,4.89,4.89,0,0,1,1.83,1.35,6,6,0,0,1,1.11,2.1,9.14,9.14,0,0,1,.38,2.71v11.14h-3.07V418.67a4.71,4.71,0,0,0-.91-3.08,3.39,3.39,0,0,0-2.77-1.1,5.16,5.16,0,0,0-2.55.66,8.37,8.37,0,0,0-2.18,1.78v12.88Z" transform="translate(-261.35 -271.16)"/><path class="cls-1" d="M683.25,415.2a.68.68,0,0,1-.64.38,1.21,1.21,0,0,1-.59-.19q-.33-.19-.8-.42a7.62,7.62,0,0,0-1.13-.43,5.4,5.4,0,0,0-1.55-.2,4.59,4.59,0,0,0-1.4.2,3.36,3.36,0,0,0-1.06.54,2.41,2.41,0,0,0-.67.8,2.16,2.16,0,0,0-.23,1,1.65,1.65,0,0,0,.39,1.12,3.38,3.38,0,0,0,1,.78,8.93,8.93,0,0,0,1.45.58l1.67.54q.85.29,1.67.63a6,6,0,0,1,1.45.86,3.94,3.94,0,0,1,1,1.27,3.89,3.89,0,0,1,.39,1.8,5.71,5.71,0,0,1-.43,2.24,4.89,4.89,0,0,1-1.28,1.78,6.18,6.18,0,0,1-2.07,1.18,8.53,8.53,0,0,1-2.83.43,8.83,8.83,0,0,1-3.32-.6,8.4,8.4,0,0,1-2.52-1.53l.73-1.17a1.06,1.06,0,0,1,.33-.35.92.92,0,0,1,.5-.12,1.16,1.16,0,0,1,.66.24q.35.24.84.54a6.39,6.39,0,0,0,1.19.54,5.42,5.42,0,0,0,1.75.24,4.8,4.8,0,0,0,1.57-.23,3.31,3.31,0,0,0,1.12-.63,2.5,2.5,0,0,0,.66-.92,2.83,2.83,0,0,0,.22-1.11,1.83,1.83,0,0,0-.39-1.2,3.3,3.3,0,0,0-1-.81,8.36,8.36,0,0,0-1.46-.59l-1.67-.53q-.85-.28-1.67-.63a5.88,5.88,0,0,1-1.46-.89,4,4,0,0,1-1-1.32,4.27,4.27,0,0,1-.39-1.91,4.65,4.65,0,0,1,.42-1.92,4.73,4.73,0,0,1,1.21-1.62,6,6,0,0,1,2-1.11,7.81,7.81,0,0,1,2.64-.41,8.36,8.36,0,0,1,3.1.54,7.35,7.35,0,0,1,2.38,1.49Z" transform="translate(-261.35 -271.16)"/><path class="cls-1" d="M695.58,429.81V414.94l-1.93-.23a1.53,1.53,0,0,1-.6-.27.63.63,0,0,1-.23-.53v-1.26h2.76V411a7.79,7.79,0,0,1,.42-2.67,5.4,5.4,0,0,1,1.21-2,5.12,5.12,0,0,1,1.89-1.22,7,7,0,0,1,2.49-.41,6.64,6.64,0,0,1,2.18.35l-.07,1.54a.39.39,0,0,1-.29.41,3.34,3.34,0,0,1-.78.07h-.54a4.71,4.71,0,0,0-1.44.21,2.72,2.72,0,0,0-1.11.67,3.06,3.06,0,0,0-.72,1.23,6.08,6.08,0,0,0-.25,1.88v1.61h5.06v2.23h-5v14.92Z" transform="translate(-261.35 -271.16)"/><path class="cls-1" d="M713.6,412a9,9,0,0,1,3.46.64,7.31,7.31,0,0,1,2.62,1.81,8,8,0,0,1,1.66,2.84,12.27,12.27,0,0,1,0,7.45,8,8,0,0,1-1.66,2.83,7.21,7.21,0,0,1-2.62,1.8,9.82,9.82,0,0,1-6.92,0,7.28,7.28,0,0,1-2.63-1.8,8.07,8.07,0,0,1-1.67-2.83,12.12,12.12,0,0,1,0-7.45,8.06,8.06,0,0,1,1.67-2.84,7.38,7.38,0,0,1,2.63-1.81A9,9,0,0,1,713.6,412Zm0,15.61a4.49,4.49,0,0,0,3.87-1.74,9.87,9.87,0,0,0,0-9.71,4.48,4.48,0,0,0-3.87-1.74,5.37,5.37,0,0,0-2.28.45,4.27,4.27,0,0,0-1.62,1.29,5.75,5.75,0,0,0-1,2.08,12.3,12.3,0,0,0,0,5.57,5.67,5.67,0,0,0,1,2.06,4.29,4.29,0,0,0,1.62,1.29A5.36,5.36,0,0,0,713.6,427.65Z" transform="translate(-261.35 -271.16)"/><path class="cls-1" d="M725.72,429.81V412.32h1.76a1,1,0,0,1,.69.19,1.17,1.17,0,0,1,.26.66l.21,2.73a8,8,0,0,1,2.22-2.86,5.23,5.23,0,0,1,4.41-.86,4.59,4.59,0,0,1,1.09.46l-.4,2.3a.52.52,0,0,1-.54.43,2.69,2.69,0,0,1-.74-.16,4.68,4.68,0,0,0-1.4-.16,4,4,0,0,0-2.68.93,7,7,0,0,0-1.8,2.71v11.14Z" transform="translate(-261.35 -271.16)"/><path class="cls-1" d="M762,405.06v2.73H750.16V416h9.62v2.62h-9.62v8.44H762v2.73H746.79V405.06Z" transform="translate(-261.35 -271.16)"/><path class="cls-1" d="M764.16,412.32h2.52a1,1,0,0,1,.6.19,1.07,1.07,0,0,1,.34.45l4.44,11.26a8.54,8.54,0,0,1,.38,1.24q.14.62.26,1.23.14-.6.29-1.23a10.41,10.41,0,0,1,.4-1.24L777.88,413a1,1,0,0,1,.34-.46.91.91,0,0,1,.58-.18h2.4l-7.13,17.49h-2.78Z" transform="translate(-261.35 -271.16)"/><path class="cls-1" d="M790.52,412a7.81,7.81,0,0,1,2.9.53,6.51,6.51,0,0,1,2.3,1.52,6.93,6.93,0,0,1,1.51,2.45,9.48,9.48,0,0,1,.54,3.32,2,2,0,0,1-.16,1,.65.65,0,0,1-.59.24H785.4a9.64,9.64,0,0,0,.45,2.88,5.89,5.89,0,0,0,1.14,2,4.57,4.57,0,0,0,1.73,1.23,5.93,5.93,0,0,0,2.25.41,6.58,6.58,0,0,0,2-.27,9.4,9.4,0,0,0,1.44-.58,10.84,10.84,0,0,0,1-.58,1.34,1.34,0,0,1,.7-.27.68.68,0,0,1,.59.29l.86,1.12a5.82,5.82,0,0,1-1.36,1.2,8.49,8.49,0,0,1-1.7.84,10.81,10.81,0,0,1-1.87.49,11.54,11.54,0,0,1-1.92.16,8.91,8.91,0,0,1-3.34-.61,7.32,7.32,0,0,1-2.64-1.8,8.24,8.24,0,0,1-1.74-2.93,11.91,11.91,0,0,1-.62-4,10.2,10.2,0,0,1,.56-3.42,8.06,8.06,0,0,1,1.61-2.75,7.43,7.43,0,0,1,2.57-1.83A8.44,8.44,0,0,1,790.52,412Zm.07,2.26a4.72,4.72,0,0,0-3.51,1.29,6.06,6.06,0,0,0-1.59,3.57H795a6.21,6.21,0,0,0-.29-2,4.35,4.35,0,0,0-.86-1.54,3.87,3.87,0,0,0-1.39-1A4.69,4.69,0,0,0,790.59,414.3Z" transform="translate(-261.35 -271.16)"/><path class="cls-1" d="M801.7,429.81V412.32h1.76a1,1,0,0,1,.69.19,1.17,1.17,0,0,1,.26.66l.21,2.73a8,8,0,0,1,2.22-2.86,5.23,5.23,0,0,1,4.41-.86,4.61,4.61,0,0,1,1.09.46l-.4,2.3a.52.52,0,0,1-.54.43,2.68,2.68,0,0,1-.74-.16,4.69,4.69,0,0,0-1.4-.16,4,4,0,0,0-2.69.93,7,7,0,0,0-1.8,2.71v11.14Z" transform="translate(-261.35 -271.16)"/><path class="cls-1" d="M820.74,435a1.61,1.61,0,0,1-.39.55,1.05,1.05,0,0,1-.72.21h-2.28l3.19-6.94-7.22-16.47H816a.91.91,0,0,1,.62.2,1.25,1.25,0,0,1,.33.44l4.68,11c.1.25.19.51.27.76s.14.51.2.78l.24-.78c.08-.25.17-.51.28-.78l4.54-11a1,1,0,0,1,.35-.46.91.91,0,0,1,.54-.18h2.45Z" transform="translate(-261.35 -271.16)"/><path class="cls-1" d="M839.92,412a9,9,0,0,1,3.46.64,7.31,7.31,0,0,1,2.62,1.81,8,8,0,0,1,1.66,2.84,12.27,12.27,0,0,1,0,7.45,8,8,0,0,1-1.66,2.83,7.21,7.21,0,0,1-2.62,1.8,9.82,9.82,0,0,1-6.92,0,7.28,7.28,0,0,1-2.63-1.8,8.07,8.07,0,0,1-1.67-2.83,12.12,12.12,0,0,1,0-7.45,8.06,8.06,0,0,1,1.67-2.84,7.38,7.38,0,0,1,2.63-1.81A9,9,0,0,1,839.92,412Zm0,15.61a4.49,4.49,0,0,0,3.87-1.74,9.87,9.87,0,0,0,0-9.71,4.48,4.48,0,0,0-3.87-1.74,5.37,5.37,0,0,0-2.28.45A4.27,4.27,0,0,0,836,416.2a5.75,5.75,0,0,0-1,2.08,12.3,12.3,0,0,0,0,5.57,5.67,5.67,0,0,0,1,2.06,4.29,4.29,0,0,0,1.62,1.29A5.36,5.36,0,0,0,839.92,427.65Z" transform="translate(-261.35 -271.16)"/><path class="cls-1" d="M852,429.81V412.32h1.83a.78.78,0,0,1,.83.64l.24,1.9a9.83,9.83,0,0,1,2.55-2,6.63,6.63,0,0,1,3.25-.78,6.32,6.32,0,0,1,2.53.48,4.89,4.89,0,0,1,1.83,1.35,6,6,0,0,1,1.11,2.1,9.14,9.14,0,0,1,.38,2.71v11.14h-3.07V418.67a4.71,4.71,0,0,0-.91-3.08,3.39,3.39,0,0,0-2.77-1.1,5.16,5.16,0,0,0-2.55.66,8.37,8.37,0,0,0-2.18,1.78v12.88Z" transform="translate(-261.35 -271.16)"/><path class="cls-1" d="M878.17,412a7.81,7.81,0,0,1,2.9.53,6.51,6.51,0,0,1,2.3,1.52,6.93,6.93,0,0,1,1.51,2.45,9.46,9.46,0,0,1,.54,3.32,2,2,0,0,1-.16,1,.64.64,0,0,1-.59.24H873a9.67,9.67,0,0,0,.45,2.88,5.89,5.89,0,0,0,1.14,2,4.56,4.56,0,0,0,1.73,1.23,5.93,5.93,0,0,0,2.24.41,6.58,6.58,0,0,0,2-.27,9.48,9.48,0,0,0,1.44-.58,10.94,10.94,0,0,0,1-.58,1.35,1.35,0,0,1,.7-.27.68.68,0,0,1,.59.29l.86,1.12a5.82,5.82,0,0,1-1.36,1.2,8.5,8.5,0,0,1-1.7.84,10.8,10.8,0,0,1-1.87.49,11.56,11.56,0,0,1-1.92.16,8.9,8.9,0,0,1-3.34-.61,7.32,7.32,0,0,1-2.64-1.8,8.22,8.22,0,0,1-1.74-2.93,11.88,11.88,0,0,1-.62-4,10.2,10.2,0,0,1,.56-3.42,8.06,8.06,0,0,1,1.61-2.75,7.43,7.43,0,0,1,2.57-1.83A8.45,8.45,0,0,1,878.17,412Zm.07,2.26a4.72,4.72,0,0,0-3.5,1.29,6.05,6.05,0,0,0-1.59,3.57h9.51a6.23,6.23,0,0,0-.29-2,4.36,4.36,0,0,0-.86-1.54,3.87,3.87,0,0,0-1.39-1A4.69,4.69,0,0,0,878.24,414.3Z" transform="translate(-261.35 -271.16)"/><path class="cls-2" d="M475.95,352.3A39.47,39.47,0,0,0,494,348.4V331.83h-11.4a3.56,3.56,0,0,1-2.58-.91,3,3,0,0,1-.94-2.24V319.1h30.3V356a50,50,0,0,1-7.21,4.38,46,46,0,0,1-8,3.06,61.37,61.37,0,0,1-9.1,1.8,85.74,85.74,0,0,1-10.46.6,47.5,47.5,0,0,1-18.33-3.46,43,43,0,0,1-24-24.38,49.83,49.83,0,0,1-3.43-18.71,51.45,51.45,0,0,1,3.34-18.84,41.48,41.48,0,0,1,24.38-24.32,53.9,53.9,0,0,1,19.66-3.4A51.25,51.25,0,0,1,495.51,276a44.54,44.54,0,0,1,13.83,8.6l-4.91,7.69a4.37,4.37,0,0,1-3.84,2.33,5.71,5.71,0,0,1-3.09-1q-2-1.2-4.13-2.39a28.08,28.08,0,0,0-4.66-2.08,38.1,38.1,0,0,0-5.73-1.45,42.18,42.18,0,0,0-7.34-.57,31.45,31.45,0,0,0-12.19,2.27,25.79,25.79,0,0,0-9.29,6.49A29.24,29.24,0,0,0,448.23,306a39.74,39.74,0,0,0-2.08,13.23,41.32,41.32,0,0,0,2.21,14,29.39,29.39,0,0,0,6.17,10.36,26.58,26.58,0,0,0,9.45,6.46A31.38,31.38,0,0,0,475.95,352.3Z" transform="translate(-261.35 -271.16)"/><path class="cls-2" d="M543.23,281.3a8.87,8.87,0,0,1-.82,3.78,10.27,10.27,0,0,1-5.35,5.2,9.75,9.75,0,0,1-3.91.79,9.37,9.37,0,0,1-3.81-.79,10.08,10.08,0,0,1-3.12-2.11,10.2,10.2,0,0,1-2.11-3.09,9.15,9.15,0,0,1-.79-3.78,9.75,9.75,0,0,1,.79-3.91,10,10,0,0,1,2.11-3.15,10.1,10.1,0,0,1,3.12-2.11,9.39,9.39,0,0,1,3.81-.79,9.77,9.77,0,0,1,3.91.79,10.41,10.41,0,0,1,3.18,2.11,10.18,10.18,0,0,1,2.17,3.15A9.45,9.45,0,0,1,543.23,281.3Zm-2.33,18.84v64.64H525.34V300.14Z" transform="translate(-261.35 -271.16)"/><path class="cls-2" d="M579.71,365.78q-8.38,0-12.92-4.76t-4.54-13.14v-36.1H555.7a3,3,0,0,1-3.09-3.28v-6.17l10.4-1.7L566.29,283a3.12,3.12,0,0,1,1.17-2,3.7,3.7,0,0,1,2.3-.69h8.06V300.7h17v11.09h-17v35a6.87,6.87,0,0,0,1.51,4.73,5.13,5.13,0,0,0,4,1.7,7.32,7.32,0,0,0,2.43-.35,13.32,13.32,0,0,0,1.7-.72q.72-.38,1.29-.72a2.17,2.17,0,0,1,1.13-.35,1.79,1.79,0,0,1,1.13.35,5.35,5.35,0,0,1,.94,1l4.66,7.56a23.56,23.56,0,0,1-7.81,4.28A29.09,29.09,0,0,1,579.71,365.78Z" transform="translate(-261.35 -271.16)"/><path class="cls-3" d="M625.63,332.71v32.07H608.68v-91.1h29.67a52,52,0,0,1,15.81,2.14,30.47,30.47,0,0,1,11,6,23.45,23.45,0,0,1,6.43,9.2,34.26,34.26,0,0,1-.13,23.85,25.18,25.18,0,0,1-6.62,9.48,30.79,30.79,0,0,1-11,6.17,49.07,49.07,0,0,1-15.5,2.21Zm0-13.23h12.73a25.52,25.52,0,0,0,8.13-1.17,15.1,15.1,0,0,0,5.73-3.34,13.71,13.71,0,0,0,3.4-5.29,20.26,20.26,0,0,0,1.13-7,18.38,18.38,0,0,0-1.13-6.61,13.09,13.09,0,0,0-3.4-5,15.14,15.14,0,0,0-5.73-3.18,26.9,26.9,0,0,0-8.13-1.1H625.63Z" transform="translate(-261.35 -271.16)"/><path class="cls-3" d="M704.89,281.3a8.88,8.88,0,0,1-.82,3.78,10.28,10.28,0,0,1-5.36,5.2,9.75,9.75,0,0,1-3.91.79,9.37,9.37,0,0,1-3.81-.79,10.09,10.09,0,0,1-3.12-2.11,10.2,10.2,0,0,1-2.11-3.09,9.16,9.16,0,0,1-.79-3.78,9.76,9.76,0,0,1,.79-3.91,10,10,0,0,1,2.11-3.15,10.11,10.11,0,0,1,3.12-2.11,9.39,9.39,0,0,1,3.81-.79,9.77,9.77,0,0,1,3.91.79,10.41,10.41,0,0,1,3.18,2.11,10.19,10.19,0,0,1,2.17,3.15A9.46,9.46,0,0,1,704.89,281.3Zm-2.33,18.84v64.64H687V300.14Z" transform="translate(-261.35 -271.16)"/><path class="cls-3" d="M741.36,365.78q-8.38,0-12.92-4.76t-4.54-13.14v-36.1h-6.55a3,3,0,0,1-3.09-3.28v-6.17l10.39-1.7L727.94,283a3.11,3.11,0,0,1,1.17-2,3.69,3.69,0,0,1,2.3-.69h8.06V300.7h17v11.09h-17v35a6.87,6.87,0,0,0,1.51,4.73,5.13,5.13,0,0,0,4,1.7,7.32,7.32,0,0,0,2.43-.35,13.33,13.33,0,0,0,1.7-.72q.72-.38,1.29-.72a2.17,2.17,0,0,1,1.13-.35,1.79,1.79,0,0,1,1.13.35,5.32,5.32,0,0,1,.95,1l4.66,7.56a23.56,23.56,0,0,1-7.81,4.28A29.08,29.08,0,0,1,741.36,365.78Z" transform="translate(-261.35 -271.16)"/><path class="cls-3" d="M814.32,313.81a7.77,7.77,0,0,1-1.35,1.39,3.12,3.12,0,0,1-1.92.5,4.28,4.28,0,0,1-2.33-.72q-1.13-.72-2.71-1.64a20.33,20.33,0,0,0-3.75-1.64,17.25,17.25,0,0,0-5.39-.72,16.43,16.43,0,0,0-7.18,1.48,13.61,13.61,0,0,0-5.13,4.25,19.15,19.15,0,0,0-3.06,6.71,36,36,0,0,0-1,8.91,34.93,34.93,0,0,0,1.1,9.2,19.63,19.63,0,0,0,3.18,6.77,13.69,13.69,0,0,0,5,4.16,15.27,15.27,0,0,0,6.68,1.42,16.55,16.55,0,0,0,6-.91,19,19,0,0,0,3.87-2q1.57-1.1,2.74-2a4.14,4.14,0,0,1,2.62-.91,3.16,3.16,0,0,1,2.83,1.45l4.47,5.67a28.13,28.13,0,0,1-5.61,5.07,30.33,30.33,0,0,1-6.27,3.28,31.89,31.89,0,0,1-6.71,1.73,47.67,47.67,0,0,1-6.87.5,28.68,28.68,0,0,1-11.28-2.24,26.3,26.3,0,0,1-9.23-6.52,31.39,31.39,0,0,1-6.24-10.49,40.5,40.5,0,0,1-2.3-14.14,41.11,41.11,0,0,1,2-13.2,29.88,29.88,0,0,1,6-10.52,27.58,27.58,0,0,1,9.83-7,33.87,33.87,0,0,1,13.48-2.52,32.09,32.09,0,0,1,12.69,2.33,31,31,0,0,1,9.8,6.68Z" transform="translate(-261.35 -271.16)"/><path class="cls-3" d="M829,364.78V271.16h15.56v36a33,33,0,0,1,8.32-5.8,24.1,24.1,0,0,1,10.65-2.21,23.18,23.18,0,0,1,9.39,1.8,18.55,18.55,0,0,1,6.84,5,22.17,22.17,0,0,1,4.16,7.75,33,33,0,0,1,1.42,9.92v41.14H869.75V323.64q0-5.92-2.74-9.17t-8.22-3.24a16.21,16.21,0,0,0-7.56,1.83,27.1,27.1,0,0,0-6.68,5v46.75Z" transform="translate(-261.35 -271.16)"/><path class="cls-3" d="M400.34,271.84h-68l16.07,16.07a9.06,9.06,0,0,1,5.77-.22,9.26,9.26,0,0,1,6.44,6.91,9.06,9.06,0,0,1-.38,5.14l9.84,10.56a9.21,9.21,0,1,1-5,4.94l-9.63-10.35-.35.14v27.44a9.21,9.21,0,1,1-7,0V305a9.18,9.18,0,0,1-4.83-12.34l-20.85-20.85H309.14a6.9,6.9,0,0,0-6.9,6.9V358.5a6.9,6.9,0,0,0,6.9,6.9h47.25l-4.6,23,31.47-23h17.08a6.9,6.9,0,0,0,6.9-6.9V278.74A6.9,6.9,0,0,0,400.34,271.84Z" transform="translate(-261.35 -271.16)"/><path class="cls-2" d="M261.35,493.06V475.34h7.09v1.36H263v15h5.46v1.36Z" transform="translate(-261.35 -271.16)"/><path class="cls-2" d="M273.87,475.34v1.1a2.23,2.23,0,0,0-1,.47,2.21,2.21,0,0,0-.53.78,3,3,0,0,0-.2,1.16,1.48,1.48,0,0,1,1.2.46,1.5,1.5,0,0,1,.39,1,1.45,1.45,0,0,1-1.43,1.45,1.62,1.62,0,0,1-1.27-.64,2.62,2.62,0,0,1-.54-1.74,4.05,4.05,0,0,1,.42-1.83,4.45,4.45,0,0,1,1.15-1.46A3.41,3.41,0,0,1,273.87,475.34Zm4.3,0v1.1a2.23,2.23,0,0,0-1,.47,2.21,2.21,0,0,0-.53.78,3,3,0,0,0-.2,1.16,1.46,1.46,0,0,1,1.59,1.44,1.45,1.45,0,0,1-1.43,1.45,1.61,1.61,0,0,1-1.28-.64,2.63,2.63,0,0,1-.53-1.74,4.05,4.05,0,0,1,.42-1.83,4.45,4.45,0,0,1,1.15-1.46A3.41,3.41,0,0,1,278.17,475.34Z" transform="translate(-261.35 -271.16)"/><path class="cls-2" d="M289.22,489.79a9.48,9.48,0,0,1-2.65.42,5.34,5.34,0,0,1-5.12-3.39,10.17,10.17,0,0,1,0-7.65,5.63,5.63,0,0,1,2.08-2.56,5.33,5.33,0,0,1,3-.87,8,8,0,0,1,2.74.57v1.62a5.57,5.57,0,0,0-2.81-.82,3,3,0,0,0-1.93.72,5,5,0,0,0-1.41,2.12,8.48,8.48,0,0,0-.53,3,8.18,8.18,0,0,0,1,4,3.39,3.39,0,0,0,3.19,1.82q.28,0,.71,0v-4.39h-1.36V483h3.14Z" transform="translate(-261.35 -271.16)"/><path class="cls-2" d="M294.48,489.8v-8.46h-2.72V480h4.36v8.46h2.73v1.36Zm-.26-13.36a1,1,0,0,1,.38-.82,1.07,1.07,0,0,1,1.43,0,1,1,0,0,1,.38.82.94.94,0,0,1-.38.81,1.07,1.07,0,0,1-1.43,0A.94.94,0,0,1,294.22,476.43Z" transform="translate(-261.35 -271.16)"/><path class="cls-2" d="M310.65,489.4A9.07,9.07,0,0,1,309,490a5.63,5.63,0,0,1-1,.09,4.41,4.41,0,0,1-1.88-.4,2.77,2.77,0,0,1-1.29-1.17,5.05,5.05,0,0,1-.44-2.39v-4h-2.45V480.8h2.45v-4H306v4h4.37v1.36H306v3.93a3.58,3.58,0,0,0,.28,1.67,1.73,1.73,0,0,0,.75.72,2.52,2.52,0,0,0,1.11.23,5.05,5.05,0,0,0,2.5-.75Z" transform="translate(-261.35 -271.16)"/><path class="cls-2" d="M312.9,489.8V476.15h1.78V482h5v-5.87h1.78V489.8H319.7v-6.41h-5v6.41Z" transform="translate(-261.35 -271.16)"/><path class="cls-2" d="M331.94,480v9.82h-1.63v-2.15a5.89,5.89,0,0,1-1.76,1.82,3.61,3.61,0,0,1-1.93.61,2.85,2.85,0,0,1-1.58-.46,2.43,2.43,0,0,1-1-1.21,9.88,9.88,0,0,1-.28-2.93V480h1.63v5.69a8,8,0,0,0,.14,1.87,1.46,1.46,0,0,0,.5.74,1.24,1.24,0,0,0,.79.29,3,3,0,0,0,1.85-.81,6.57,6.57,0,0,0,1.64-2.05V480Z" transform="translate(-261.35 -271.16)"/><path class="cls-2" d="M336.09,482.18a5.38,5.38,0,0,1,1.8-1.86,3.82,3.82,0,0,1,1.92-.62,3,3,0,0,1,2.21,1.06,4.61,4.61,0,0,1,1,3.23,6.84,6.84,0,0,1-.65,3,5.52,5.52,0,0,1-1.74,2.12,4.53,4.53,0,0,1-2.7.78q-.46,0-1.41-.1l-.42,0h-1.63V475.61h1.63Zm0,1.95v4.21a6.59,6.59,0,0,0,1.63.23,3.19,3.19,0,0,0,2.5-1.17,4.69,4.69,0,0,0,1-3.19,3.66,3.66,0,0,0-.55-2.21,1.57,1.57,0,0,0-1.26-.74,2.72,2.72,0,0,0-1.68.77A7.51,7.51,0,0,0,336.09,484.13Z" transform="translate(-261.35 -271.16)"/><path class="cls-2" d="M345.51,481.74v-1.1a2.23,2.23,0,0,0,1-.47,2.2,2.2,0,0,0,.53-.78,3,3,0,0,0,.2-1.16,1.49,1.49,0,0,1-1.2-.46,1.51,1.51,0,0,1-.39-1,1.38,1.38,0,0,1,.43-1,1.4,1.4,0,0,1,1-.42,1.62,1.62,0,0,1,1.27.64,2.62,2.62,0,0,1,.54,1.74,4.05,4.05,0,0,1-.42,1.83,4.45,4.45,0,0,1-1.15,1.46A3.4,3.4,0,0,1,345.51,481.74Zm4.3,0v-1.1a2.27,2.27,0,0,0,1-.47,2.17,2.17,0,0,0,.53-.78,3,3,0,0,0,.2-1.16,1.49,1.49,0,0,1-1.2-.46,1.51,1.51,0,0,1-.39-1,1.44,1.44,0,0,1,1.42-1.45,1.63,1.63,0,0,1,1.28.64,2.62,2.62,0,0,1,.54,1.74,4.05,4.05,0,0,1-.42,1.83,4.45,4.45,0,0,1-1.15,1.46A3.4,3.4,0,0,1,349.81,481.74Z" transform="translate(-261.35 -271.16)"/><path class="cls-2" d="M358.37,493.61v-1.09a2.2,2.2,0,0,0,1-.48,2.27,2.27,0,0,0,.53-.79,3,3,0,0,0,.2-1.16,1.49,1.49,0,0,1-1.2-.46,1.52,1.52,0,0,1-.39-1,1.37,1.37,0,0,1,.43-1,1.4,1.4,0,0,1,1-.42,1.62,1.62,0,0,1,1.27.64,2.62,2.62,0,0,1,.54,1.74,4.08,4.08,0,0,1-.42,1.82,4.45,4.45,0,0,1-1.15,1.46A3.35,3.35,0,0,1,358.37,493.61Z" transform="translate(-261.35 -271.16)"/><path class="cls-2" d="M381,475.34v1.1a2.23,2.23,0,0,0-1,.47,2.21,2.21,0,0,0-.53.78,3,3,0,0,0-.2,1.16,1.48,1.48,0,0,1,1.2.46,1.5,1.5,0,0,1,.39,1,1.45,1.45,0,0,1-1.43,1.45,1.62,1.62,0,0,1-1.27-.64,2.62,2.62,0,0,1-.54-1.74,4.05,4.05,0,0,1,.42-1.83,4.45,4.45,0,0,1,1.15-1.46A3.41,3.41,0,0,1,381,475.34Zm4.3,0v1.1a2.23,2.23,0,0,0-1,.47,2.21,2.21,0,0,0-.53.78,3,3,0,0,0-.2,1.16,1.46,1.46,0,0,1,1.59,1.44,1.45,1.45,0,0,1-1.43,1.45,1.61,1.61,0,0,1-1.28-.64,2.63,2.63,0,0,1-.53-1.74,4.05,4.05,0,0,1,.42-1.83,4.45,4.45,0,0,1,1.15-1.46A3.41,3.41,0,0,1,385.28,475.34Z" transform="translate(-261.35 -271.16)"/><path class="cls-2" d="M396.34,489.79a9.48,9.48,0,0,1-2.65.42,5.34,5.34,0,0,1-5.12-3.39,10.17,10.17,0,0,1,0-7.65,5.63,5.63,0,0,1,2.08-2.56,5.33,5.33,0,0,1,3-.87,8,8,0,0,1,2.74.57v1.62a5.57,5.57,0,0,0-2.81-.82,3,3,0,0,0-1.93.72,5,5,0,0,0-1.41,2.12,8.48,8.48,0,0,0-.53,3,8.18,8.18,0,0,0,1,4,3.39,3.39,0,0,0,3.19,1.82q.28,0,.71,0v-4.39H393.2V483h3.14Z" transform="translate(-261.35 -271.16)"/><path class="cls-2" d="M401.6,489.8v-8.46h-2.72V480h4.36v8.46H406v1.36Zm-.26-13.36a1,1,0,0,1,.38-.82,1.07,1.07,0,0,1,1.43,0,1,1,0,0,1,.38.82.94.94,0,0,1-.38.81,1.07,1.07,0,0,1-1.43,0A.94.94,0,0,1,401.34,476.43Z" transform="translate(-261.35 -271.16)"/><path class="cls-2" d="M417.77,489.4a9.07,9.07,0,0,1-1.67.58,5.63,5.63,0,0,1-1,.09,4.41,4.41,0,0,1-1.88-.4,2.77,2.77,0,0,1-1.29-1.17,5.05,5.05,0,0,1-.44-2.39v-4H409V480.8h2.45v-4h1.63v4h4.37v1.36h-4.37v3.93a3.58,3.58,0,0,0,.28,1.67,1.73,1.73,0,0,0,.75.72,2.52,2.52,0,0,0,1.11.23,5.05,5.05,0,0,0,2.5-.75Z" transform="translate(-261.35 -271.16)"/><path class="cls-2" d="M428.44,489.14a8.7,8.7,0,0,1-3.71.93,4.36,4.36,0,0,1-2.37-.66,4.7,4.7,0,0,1-1.67-1.88,5.66,5.66,0,0,1-.63-2.62,5.87,5.87,0,0,1,.6-2.58,4.61,4.61,0,0,1,1.67-1.93,4.32,4.32,0,0,1,2.39-.69,3.5,3.5,0,0,1,2.81,1.25,5.84,5.84,0,0,1,1.06,3.84v.35h-6.77a4.09,4.09,0,0,0,.43,1.87,3,3,0,0,0,1.12,1.27,3,3,0,0,0,1.58.42,7.35,7.35,0,0,0,3.5-1.06Zm-6.53-5.22h4.9v-.24a2.9,2.9,0,0,0-.59-1.91,1.94,1.94,0,0,0-1.57-.71,2.35,2.35,0,0,0-1.72.72A4.11,4.11,0,0,0,421.91,483.92Z" transform="translate(-261.35 -271.16)"/><path class="cls-2" d="M437.44,487.6a5.28,5.28,0,0,1-1.8,1.85,3.85,3.85,0,0,1-1.93.62A3,3,0,0,1,431.5,489a4.62,4.62,0,0,1-1-3.23,6.89,6.89,0,0,1,.65-3,5.47,5.47,0,0,1,1.74-2.12,4.53,4.53,0,0,1,2.7-.78q.47,0,1.4.1l.42,0h1.64v6.93a9.12,9.12,0,0,0,.38,2.88h-1.71A14.89,14.89,0,0,1,437.44,487.6Zm0-2v-4.21a6.41,6.41,0,0,0-1.62-.23,3.19,3.19,0,0,0-2.52,1.17,4.72,4.72,0,0,0-1,3.18,3.68,3.68,0,0,0,.55,2.21,1.56,1.56,0,0,0,1.25.74,2.75,2.75,0,0,0,1.69-.77A7.34,7.34,0,0,0,437.44,485.64Z" transform="translate(-261.35 -271.16)"/><path class="cls-2" d="M441.92,481.74v-1.1a2.23,2.23,0,0,0,1-.47,2.2,2.2,0,0,0,.53-.78,3,3,0,0,0,.2-1.16,1.49,1.49,0,0,1-1.2-.46,1.51,1.51,0,0,1-.39-1,1.38,1.38,0,0,1,.43-1,1.4,1.4,0,0,1,1-.42,1.62,1.62,0,0,1,1.27.64,2.62,2.62,0,0,1,.54,1.74,4.05,4.05,0,0,1-.42,1.83,4.45,4.45,0,0,1-1.15,1.46A3.4,3.4,0,0,1,441.92,481.74Zm4.3,0v-1.1a2.27,2.27,0,0,0,1-.47,2.17,2.17,0,0,0,.53-.78,3,3,0,0,0,.2-1.16,1.49,1.49,0,0,1-1.2-.46,1.51,1.51,0,0,1-.39-1,1.44,1.44,0,0,1,1.42-1.45A1.63,1.63,0,0,1,449,476a2.62,2.62,0,0,1,.54,1.74,4.05,4.05,0,0,1-.42,1.83A4.45,4.45,0,0,1,448,481,3.4,3.4,0,0,1,446.21,481.74Z" transform="translate(-261.35 -271.16)"/><path class="cls-2" d="M454.77,493.61v-1.09a2.2,2.2,0,0,0,1-.48,2.27,2.27,0,0,0,.53-.79,3,3,0,0,0,.2-1.16,1.49,1.49,0,0,1-1.2-.46,1.52,1.52,0,0,1-.39-1,1.37,1.37,0,0,1,.43-1,1.4,1.4,0,0,1,1-.42,1.62,1.62,0,0,1,1.27.64,2.62,2.62,0,0,1,.54,1.74,4.08,4.08,0,0,1-.42,1.82,4.45,4.45,0,0,1-1.15,1.46A3.35,3.35,0,0,1,454.77,493.61Z" transform="translate(-261.35 -271.16)"/><path class="cls-2" d="M477.39,475.34v1.1a2.23,2.23,0,0,0-1,.47,2.21,2.21,0,0,0-.53.78,3,3,0,0,0-.2,1.16,1.48,1.48,0,0,1,1.2.46,1.5,1.5,0,0,1,.39,1,1.45,1.45,0,0,1-1.43,1.45,1.62,1.62,0,0,1-1.27-.64,2.62,2.62,0,0,1-.54-1.74,4.05,4.05,0,0,1,.42-1.83,4.45,4.45,0,0,1,1.15-1.46A3.41,3.41,0,0,1,477.39,475.34Zm4.3,0v1.1a2.23,2.23,0,0,0-1,.47,2.21,2.21,0,0,0-.53.78,3,3,0,0,0-.2,1.16,1.46,1.46,0,0,1,1.59,1.44,1.45,1.45,0,0,1-1.43,1.45,1.61,1.61,0,0,1-1.28-.64,2.63,2.63,0,0,1-.53-1.74,4.05,4.05,0,0,1,.42-1.83,4.45,4.45,0,0,1,1.15-1.46A3.41,3.41,0,0,1,481.69,475.34Z" transform="translate(-261.35 -271.16)"/><path class="cls-2" d="M492.74,489.79a9.48,9.48,0,0,1-2.65.42,5.34,5.34,0,0,1-5.12-3.39,10.17,10.17,0,0,1,0-7.65,5.63,5.63,0,0,1,2.08-2.56,5.33,5.33,0,0,1,3-.87,8,8,0,0,1,2.74.57v1.62a5.57,5.57,0,0,0-2.81-.82,3,3,0,0,0-1.93.72,5,5,0,0,0-1.41,2.12,8.48,8.48,0,0,0-.53,3,8.18,8.18,0,0,0,1,4,3.39,3.39,0,0,0,3.19,1.82q.28,0,.71,0v-4.39h-1.36V483h3.14Z" transform="translate(-261.35 -271.16)"/><path class="cls-2" d="M499.29,490.07a4.22,4.22,0,0,1-3.37-1.47,6.08,6.08,0,0,1,0-7.42,4.6,4.6,0,0,1,6.73,0,6.08,6.08,0,0,1,0,7.42A4.21,4.21,0,0,1,499.29,490.07Zm0-1.36a2.47,2.47,0,0,0,2.08-1,5.46,5.46,0,0,0,0-5.6,2.64,2.64,0,0,0-4.17,0,5.46,5.46,0,0,0,0,5.6A2.48,2.48,0,0,0,499.29,488.71Z" transform="translate(-261.35 -271.16)"/><path class="cls-2" d="M512.53,487.59a5.29,5.29,0,0,1-1.8,1.86,3.85,3.85,0,0,1-1.93.62,3,3,0,0,1-2.21-1.06,4.62,4.62,0,0,1-1-3.23,6.89,6.89,0,0,1,.65-3,5.47,5.47,0,0,1,1.74-2.12,4.53,4.53,0,0,1,2.7-.78q.47,0,1.4.1l.42,0h1.64v6.94q0,2.48-.06,3a8.22,8.22,0,0,1-.21,1.11,3.38,3.38,0,0,1-1.6,2.07,5.76,5.76,0,0,1-3,.76,8,8,0,0,1-3.62-.91v-1.65a7.57,7.57,0,0,0,1.71.84,5.81,5.81,0,0,0,2,.37,4.2,4.2,0,0,0,1.42-.24,2.64,2.64,0,0,0,1.08-.69,2.36,2.36,0,0,0,.56-1,6.67,6.67,0,0,0,.15-1.58Zm0-1.95v-4.21a6.41,6.41,0,0,0-1.62-.23,3.19,3.19,0,0,0-2.52,1.17,4.72,4.72,0,0,0-1,3.18,3.68,3.68,0,0,0,.55,2.21,1.56,1.56,0,0,0,1.25.74,2.75,2.75,0,0,0,1.69-.77A7.34,7.34,0,0,0,512.53,485.64Z" transform="translate(-261.35 -271.16)"/><path class="cls-2" d="M516.79,489.28v-1.73a6.52,6.52,0,0,0,2.08.9,8.29,8.29,0,0,0,1.86.26,3.07,3.07,0,0,0,1.78-.4,1.2,1.2,0,0,0,.54-1,1,1,0,0,0-.25-.68,4,4,0,0,0-1.27-.69l-.56-.23-1.13-.45a5.82,5.82,0,0,1-2.3-1.32,2.25,2.25,0,0,1-.48-1.46,2.49,2.49,0,0,1,.94-2,4.74,4.74,0,0,1,3-.78,9.61,9.61,0,0,1,3,.46v1.49a9.06,9.06,0,0,0-3-.58,3.08,3.08,0,0,0-1.62.36,1.06,1.06,0,0,0-.59.91,1,1,0,0,0,.51.84,9.18,9.18,0,0,0,1.64.73l1.11.4a5.59,5.59,0,0,1,2.14,1.2,2.28,2.28,0,0,1,.61,1.63,2.62,2.62,0,0,1-1,2.1,4.85,4.85,0,0,1-3.13.82A10.42,10.42,0,0,1,516.79,489.28Z" transform="translate(-261.35 -271.16)"/><path class="cls-2" d="M527.61,481.74v-1.1a2.23,2.23,0,0,0,1-.47,2.2,2.2,0,0,0,.53-.78,3,3,0,0,0,.2-1.16,1.49,1.49,0,0,1-1.2-.46,1.51,1.51,0,0,1-.39-1,1.38,1.38,0,0,1,.43-1,1.4,1.4,0,0,1,1-.42,1.62,1.62,0,0,1,1.27.64,2.62,2.62,0,0,1,.54,1.74,4.05,4.05,0,0,1-.42,1.83,4.45,4.45,0,0,1-1.15,1.46A3.4,3.4,0,0,1,527.61,481.74Zm4.3,0v-1.1a2.27,2.27,0,0,0,1-.47,2.17,2.17,0,0,0,.53-.78,3,3,0,0,0,.2-1.16,1.49,1.49,0,0,1-1.2-.46,1.51,1.51,0,0,1-.39-1,1.44,1.44,0,0,1,1.42-1.45,1.63,1.63,0,0,1,1.28.64,2.62,2.62,0,0,1,.54,1.74,4.05,4.05,0,0,1-.42,1.83,4.45,4.45,0,0,1-1.15,1.46A3.4,3.4,0,0,1,531.91,481.74Z" transform="translate(-261.35 -271.16)"/><path class="cls-2" d="M540.47,493.61v-1.09a2.2,2.2,0,0,0,1-.48,2.27,2.27,0,0,0,.53-.79,3,3,0,0,0,.2-1.16,1.49,1.49,0,0,1-1.2-.46,1.52,1.52,0,0,1-.39-1,1.37,1.37,0,0,1,.43-1,1.4,1.4,0,0,1,1-.42,1.62,1.62,0,0,1,1.27.64,2.62,2.62,0,0,1,.54,1.74,4.08,4.08,0,0,1-.42,1.82,4.45,4.45,0,0,1-1.15,1.46A3.35,3.35,0,0,1,540.47,493.61Z" transform="translate(-261.35 -271.16)"/><path class="cls-2" d="M563.09,475.34v1.1a2.23,2.23,0,0,0-1,.47,2.21,2.21,0,0,0-.53.78,3,3,0,0,0-.2,1.16,1.48,1.48,0,0,1,1.2.46,1.5,1.5,0,0,1,.39,1,1.45,1.45,0,0,1-1.43,1.45,1.62,1.62,0,0,1-1.27-.64,2.62,2.62,0,0,1-.54-1.74,4.05,4.05,0,0,1,.42-1.83,4.45,4.45,0,0,1,1.15-1.46A3.41,3.41,0,0,1,563.09,475.34Zm4.3,0v1.1a2.23,2.23,0,0,0-1,.47,2.21,2.21,0,0,0-.53.78,3,3,0,0,0-.2,1.16,1.46,1.46,0,0,1,1.59,1.44,1.45,1.45,0,0,1-1.43,1.45,1.61,1.61,0,0,1-1.28-.64,2.63,2.63,0,0,1-.53-1.74,4.05,4.05,0,0,1,.42-1.83,4.45,4.45,0,0,1,1.15-1.46A3.41,3.41,0,0,1,567.38,475.34Z" transform="translate(-261.35 -271.16)"/><path class="cls-2" d="M578.44,489.79a9.48,9.48,0,0,1-2.65.42,5.34,5.34,0,0,1-5.12-3.39,10.17,10.17,0,0,1,0-7.65,5.63,5.63,0,0,1,2.08-2.56,5.33,5.33,0,0,1,3-.87,8,8,0,0,1,2.74.57v1.62a5.57,5.57,0,0,0-2.81-.82,3,3,0,0,0-1.93.72,5,5,0,0,0-1.41,2.12,8.48,8.48,0,0,0-.53,3,8.18,8.18,0,0,0,1,4,3.39,3.39,0,0,0,3.19,1.82q.28,0,.71,0v-4.39H575.3V483h3.14Z" transform="translate(-261.35 -271.16)"/><path class="cls-2" d="M583.7,489.8v-8.46H581V480h4.36v8.46h2.73v1.36Zm-.26-13.36a1,1,0,0,1,.38-.82,1.07,1.07,0,0,1,1.43,0,1,1,0,0,1,.38.82.94.94,0,0,1-.38.81,1.07,1.07,0,0,1-1.43,0A.94.94,0,0,1,583.44,476.43Z" transform="translate(-261.35 -271.16)"/><path class="cls-2" d="M599.87,489.4a9.07,9.07,0,0,1-1.67.58,5.63,5.63,0,0,1-1,.09,4.42,4.42,0,0,1-1.88-.4A2.77,2.77,0,0,1,594,488.5a5.05,5.05,0,0,1-.44-2.39v-4h-2.45V480.8h2.45v-4h1.63v4h4.37v1.36h-4.37v3.93a3.58,3.58,0,0,0,.28,1.67,1.73,1.73,0,0,0,.75.72,2.52,2.52,0,0,0,1.11.23,5.05,5.05,0,0,0,2.5-.75Z" transform="translate(-261.35 -271.16)"/><path class="cls-2" d="M610.29,488.29v1.5h-7.36V476.15h1.78v12.14Z" transform="translate(-261.35 -271.16)"/><path class="cls-2" d="M619.54,487.6a5.28,5.28,0,0,1-1.8,1.85,3.85,3.85,0,0,1-1.93.62A3,3,0,0,1,613.6,489a4.62,4.62,0,0,1-1-3.23,6.88,6.88,0,0,1,.65-3,5.47,5.47,0,0,1,1.74-2.12,4.53,4.53,0,0,1,2.7-.78q.47,0,1.41.1l.42,0h1.64v6.93a9.12,9.12,0,0,0,.38,2.88h-1.71A14.89,14.89,0,0,1,619.54,487.6Zm0-2v-4.21a6.41,6.41,0,0,0-1.62-.23,3.19,3.19,0,0,0-2.52,1.17,4.72,4.72,0,0,0-1,3.18,3.69,3.69,0,0,0,.55,2.21,1.56,1.56,0,0,0,1.25.74,2.75,2.75,0,0,0,1.69-.77A7.34,7.34,0,0,0,619.54,485.64Z" transform="translate(-261.35 -271.16)"/><path class="cls-2" d="M625.31,482.18a5.38,5.38,0,0,1,1.8-1.86,3.82,3.82,0,0,1,1.92-.62,3,3,0,0,1,2.21,1.06,4.61,4.61,0,0,1,1,3.23,6.84,6.84,0,0,1-.66,3,5.51,5.51,0,0,1-1.74,2.12,4.53,4.53,0,0,1-2.7.78q-.46,0-1.41-.1l-.42,0h-1.63V475.61h1.63Zm0,1.95v4.21a6.59,6.59,0,0,0,1.63.23,3.19,3.19,0,0,0,2.5-1.17,4.7,4.7,0,0,0,1-3.19,3.66,3.66,0,0,0-.55-2.21,1.57,1.57,0,0,0-1.26-.74A2.72,2.72,0,0,0,627,482,7.49,7.49,0,0,0,625.31,484.13Z" transform="translate(-261.35 -271.16)"/><path class="cls-2" d="M634.73,481.74v-1.1a2,2,0,0,0,1.49-1.26,3.05,3.05,0,0,0,.2-1.16,1.49,1.49,0,0,1-1.2-.46,1.51,1.51,0,0,1-.39-1,1.38,1.38,0,0,1,.43-1,1.4,1.4,0,0,1,1-.42,1.62,1.62,0,0,1,1.27.64,2.62,2.62,0,0,1,.54,1.74,4.05,4.05,0,0,1-.42,1.83A4.46,4.46,0,0,1,636.5,481,3.41,3.41,0,0,1,634.73,481.74Zm4.3,0v-1.1a2.27,2.27,0,0,0,1-.47,2.16,2.16,0,0,0,.53-.78,3,3,0,0,0,.2-1.16,1.49,1.49,0,0,1-1.2-.46,1.51,1.51,0,0,1-.39-1,1.44,1.44,0,0,1,1.42-1.45,1.63,1.63,0,0,1,1.28.64,2.62,2.62,0,0,1,.54,1.74,4.05,4.05,0,0,1-.42,1.83A4.44,4.44,0,0,1,640.8,481,3.4,3.4,0,0,1,639,481.74Z" transform="translate(-261.35 -271.16)"/><path class="cls-2" d="M647.58,493.61v-1.09a2.21,2.21,0,0,0,1-.48,2.3,2.3,0,0,0,.53-.79,3.05,3.05,0,0,0,.2-1.16,1.49,1.49,0,0,1-1.2-.46,1.52,1.52,0,0,1-.39-1,1.37,1.37,0,0,1,.43-1,1.4,1.4,0,0,1,1-.42,1.62,1.62,0,0,1,1.27.64,2.62,2.62,0,0,1,.54,1.74,4.08,4.08,0,0,1-.42,1.82,4.47,4.47,0,0,1-1.15,1.46A3.35,3.35,0,0,1,647.58,493.61Z" transform="translate(-261.35 -271.16)"/><path class="cls-2" d="M670.2,475.34v1.1a2,2,0,0,0-1.49,1.26,3.05,3.05,0,0,0-.2,1.16,1.48,1.48,0,0,1,1.2.46,1.5,1.5,0,0,1,.39,1,1.45,1.45,0,0,1-1.43,1.45,1.62,1.62,0,0,1-1.27-.64,2.62,2.62,0,0,1-.54-1.74,4.05,4.05,0,0,1,.42-1.83,4.46,4.46,0,0,1,1.15-1.46A3.41,3.41,0,0,1,670.2,475.34Zm4.3,0v1.1a2.23,2.23,0,0,0-1,.47,2.18,2.18,0,0,0-.53.78,3,3,0,0,0-.2,1.16,1.46,1.46,0,0,1,1.59,1.44,1.45,1.45,0,0,1-1.43,1.45,1.61,1.61,0,0,1-1.28-.64,2.63,2.63,0,0,1-.53-1.74,4.05,4.05,0,0,1,.42-1.83,4.44,4.44,0,0,1,1.15-1.46A3.4,3.4,0,0,1,674.5,475.34Z" transform="translate(-261.35 -271.16)"/><path class="cls-2" d="M677.5,489.8V476.15h2.66a9.18,9.18,0,0,1,3.21.37,2.55,2.55,0,0,1,1.22,1.08,3.23,3.23,0,0,1,.4,1.63,3.93,3.93,0,0,1-.24,1.37,3.7,3.7,0,0,1-.7,1.18,4.76,4.76,0,0,1-1.35,1,4.35,4.35,0,0,1,2.2,1.6,3.64,3.64,0,0,1,.58,1.9A3.49,3.49,0,0,1,685,488a3.28,3.28,0,0,1-1.37,1.31,6.44,6.44,0,0,1-2.81.46Zm1.78-7.5h1.86a4.12,4.12,0,0,0,1.32-.8,2.79,2.79,0,0,0,.63-.93,3,3,0,0,0,.21-1.13,1.78,1.78,0,0,0-.57-1.44,3.62,3.62,0,0,0-2.21-.48h-1.24Zm0,6.13H681a2.86,2.86,0,0,0,2.08-.66,2.17,2.17,0,0,0,.67-1.6,2.29,2.29,0,0,0-.37-1.26,2.5,2.5,0,0,0-1.14-.91,6.47,6.47,0,0,0-2.43-.34h-.49Z" transform="translate(-261.35 -271.16)"/><path class="cls-2" d="M690.82,489.8v-8.46h-2.72V480h4.36v8.46h2.73v1.36Zm-.26-13.36a1,1,0,0,1,.38-.82,1.07,1.07,0,0,1,1.43,0,1,1,0,0,1,.38.82.94.94,0,0,1-.38.81,1.07,1.07,0,0,1-1.43,0A.94.94,0,0,1,690.55,476.43Z" transform="translate(-261.35 -271.16)"/><path class="cls-2" d="M707,489.4a9.07,9.07,0,0,1-1.67.58,5.63,5.63,0,0,1-1,.09,4.41,4.41,0,0,1-1.88-.4,2.77,2.77,0,0,1-1.29-1.17,5.06,5.06,0,0,1-.43-2.39v-4h-2.45V480.8h2.45v-4h1.63v4h4.37v1.36h-4.37v3.93a3.58,3.58,0,0,0,.28,1.67,1.73,1.73,0,0,0,.75.72,2.52,2.52,0,0,0,1.11.23A5.05,5.05,0,0,0,707,488Z" transform="translate(-261.35 -271.16)"/><path class="cls-2" d="M711,482.18a5.38,5.38,0,0,1,1.8-1.86,3.82,3.82,0,0,1,1.92-.62,3,3,0,0,1,2.21,1.06,4.61,4.61,0,0,1,1,3.23,6.84,6.84,0,0,1-.66,3,5.51,5.51,0,0,1-1.74,2.12,4.53,4.53,0,0,1-2.7.78q-.46,0-1.41-.1l-.42,0h-1.63V475.61H711Zm0,1.95v4.21a6.59,6.59,0,0,0,1.63.23,3.19,3.19,0,0,0,2.5-1.17,4.7,4.7,0,0,0,1-3.19,3.66,3.66,0,0,0-.55-2.21,1.57,1.57,0,0,0-1.26-.74,2.72,2.72,0,0,0-1.68.77A7.49,7.49,0,0,0,711,484.13Z" transform="translate(-261.35 -271.16)"/><path class="cls-2" d="M728.28,480v9.82h-1.63v-2.15a5.89,5.89,0,0,1-1.76,1.82,3.61,3.61,0,0,1-1.93.61,2.85,2.85,0,0,1-1.58-.46,2.43,2.43,0,0,1-1-1.21,9.88,9.88,0,0,1-.28-2.93V480h1.63v5.69a8,8,0,0,0,.14,1.87,1.46,1.46,0,0,0,.5.74,1.24,1.24,0,0,0,.79.29,3,3,0,0,0,1.85-.81,6.58,6.58,0,0,0,1.64-2.05V480Z" transform="translate(-261.35 -271.16)"/><path class="cls-2" d="M739.18,489.51a9.8,9.8,0,0,1-3.13.55,5.05,5.05,0,0,1-2.62-.68,4.82,4.82,0,0,1-1.79-1.85,5.4,5.4,0,0,1-.64-2.65,5.07,5.07,0,0,1,1.46-3.71,4.75,4.75,0,0,1,3.51-1.48,10.09,10.09,0,0,1,3.22.57v1.57a7.52,7.52,0,0,0-3.07-.78,3.4,3.4,0,0,0-1.69.44,2.92,2.92,0,0,0-1.22,1.38,4.6,4.6,0,0,0-.43,1.93,4.4,4.4,0,0,0,.83,2.53,3,3,0,0,0,2.61,1.2,7.39,7.39,0,0,0,1.05-.07,13.21,13.21,0,0,0,1.92-.55Z" transform="translate(-261.35 -271.16)"/><path class="cls-2" d="M742.07,489.8V475.61h1.63v8.91l4.72-4.54h2.16l-4.67,4.5,4.81,5.32h-2.25l-4.77-5.27v5.27Z" transform="translate(-261.35 -271.16)"/><path class="cls-2" d="M760.5,489.14a8.7,8.7,0,0,1-3.71.93,4.36,4.36,0,0,1-2.37-.66,4.69,4.69,0,0,1-1.67-1.88,5.65,5.65,0,0,1-.63-2.62,5.87,5.87,0,0,1,.6-2.58,4.61,4.61,0,0,1,1.67-1.93,4.32,4.32,0,0,1,2.39-.69,3.5,3.5,0,0,1,2.81,1.25,5.85,5.85,0,0,1,1.06,3.84v.35h-6.77a4.09,4.09,0,0,0,.43,1.87,3,3,0,0,0,1.12,1.27,3,3,0,0,0,1.58.42,7.35,7.35,0,0,0,3.5-1.06ZM754,483.92h4.9v-.24a2.9,2.9,0,0,0-.59-1.91,1.94,1.94,0,0,0-1.57-.71,2.36,2.36,0,0,0-1.72.72A4.12,4.12,0,0,0,754,483.92Z" transform="translate(-261.35 -271.16)"/><path class="cls-2" d="M771.26,489.4a9.07,9.07,0,0,1-1.67.58,5.63,5.63,0,0,1-1,.09,4.41,4.41,0,0,1-1.88-.4,2.77,2.77,0,0,1-1.29-1.17,5.06,5.06,0,0,1-.43-2.39v-4h-2.45V480.8H765v-4h1.63v4H771v1.36h-4.37v3.93a3.58,3.58,0,0,0,.28,1.67,1.73,1.73,0,0,0,.75.72,2.52,2.52,0,0,0,1.11.23,5.05,5.05,0,0,0,2.5-.75Z" transform="translate(-261.35 -271.16)"/><path class="cls-2" d="M774,481.74v-1.1a2,2,0,0,0,1.49-1.26,3.05,3.05,0,0,0,.2-1.16,1.49,1.49,0,0,1-1.2-.46,1.51,1.51,0,0,1-.39-1,1.38,1.38,0,0,1,.43-1,1.4,1.4,0,0,1,1-.42,1.62,1.62,0,0,1,1.27.64,2.62,2.62,0,0,1,.54,1.74,4.05,4.05,0,0,1-.42,1.83,4.46,4.46,0,0,1-1.15,1.46A3.41,3.41,0,0,1,774,481.74Zm4.3,0v-1.1a2.27,2.27,0,0,0,1-.47,2.16,2.16,0,0,0,.53-.78,3,3,0,0,0,.2-1.16,1.49,1.49,0,0,1-1.2-.46,1.51,1.51,0,0,1-.39-1,1.44,1.44,0,0,1,1.42-1.45,1.63,1.63,0,0,1,1.28.64,2.62,2.62,0,0,1,.54,1.74,4.05,4.05,0,0,1-.42,1.83A4.44,4.44,0,0,1,780,481,3.4,3.4,0,0,1,778.28,481.74Z" transform="translate(-261.35 -271.16)"/><path class="cls-2" d="M786.84,493.61v-1.09a2.21,2.21,0,0,0,1-.48,2.3,2.3,0,0,0,.53-.79,3.05,3.05,0,0,0,.2-1.16,1.49,1.49,0,0,1-1.2-.46,1.52,1.52,0,0,1-.39-1,1.37,1.37,0,0,1,.43-1,1.4,1.4,0,0,1,1-.42,1.62,1.62,0,0,1,1.27.64,2.62,2.62,0,0,1,.54,1.74,4.08,4.08,0,0,1-.42,1.82,4.47,4.47,0,0,1-1.15,1.46A3.35,3.35,0,0,1,786.84,493.61Z" transform="translate(-261.35 -271.16)"/><path class="cls-2" d="M809.46,475.34v1.1a2,2,0,0,0-1.49,1.26,3.05,3.05,0,0,0-.2,1.16,1.48,1.48,0,0,1,1.2.46,1.5,1.5,0,0,1,.39,1,1.45,1.45,0,0,1-1.43,1.45,1.62,1.62,0,0,1-1.27-.64,2.62,2.62,0,0,1-.54-1.74,4.05,4.05,0,0,1,.42-1.83,4.46,4.46,0,0,1,1.15-1.46A3.41,3.41,0,0,1,809.46,475.34Zm4.3,0v1.1a2.23,2.23,0,0,0-1,.47,2.18,2.18,0,0,0-.53.78,3,3,0,0,0-.2,1.16,1.46,1.46,0,0,1,1.59,1.44,1.45,1.45,0,0,1-1.43,1.45,1.61,1.61,0,0,1-1.28-.64,2.63,2.63,0,0,1-.53-1.74,4.05,4.05,0,0,1,.42-1.83,4.44,4.44,0,0,1,1.15-1.46A3.4,3.4,0,0,1,813.75,475.34Z" transform="translate(-261.35 -271.16)"/><path class="cls-2" d="M824.81,489.79a9.48,9.48,0,0,1-2.65.42,5.34,5.34,0,0,1-5.12-3.39,10.17,10.17,0,0,1,0-7.65,5.63,5.63,0,0,1,2.08-2.56,5.33,5.33,0,0,1,3-.87,8,8,0,0,1,2.74.57v1.62a5.57,5.57,0,0,0-2.81-.82,3,3,0,0,0-1.93.72,4.94,4.94,0,0,0-1.41,2.12,8.46,8.46,0,0,0-.53,3,8.18,8.18,0,0,0,1,4,3.39,3.39,0,0,0,3.19,1.82q.28,0,.71,0v-4.39h-1.36V483h3.14Z" transform="translate(-261.35 -271.16)"/><path class="cls-2" d="M830.07,489.8v-8.46h-2.72V480h4.36v8.46h2.73v1.36Zm-.26-13.36a1,1,0,0,1,.38-.82,1.07,1.07,0,0,1,1.43,0,1,1,0,0,1,.38.82.94.94,0,0,1-.38.81,1.07,1.07,0,0,1-1.43,0A.94.94,0,0,1,829.81,476.43Z" transform="translate(-261.35 -271.16)"/><path class="cls-2" d="M846.24,489.4a9.07,9.07,0,0,1-1.67.58,5.63,5.63,0,0,1-1,.09,4.41,4.41,0,0,1-1.88-.4,2.77,2.77,0,0,1-1.29-1.17,5.06,5.06,0,0,1-.43-2.39v-4h-2.45V480.8H840v-4h1.63v4H846v1.36H841.6v3.93a3.58,3.58,0,0,0,.28,1.67,1.73,1.73,0,0,0,.75.72,2.52,2.52,0,0,0,1.11.23,5.05,5.05,0,0,0,2.5-.75Z" transform="translate(-261.35 -271.16)"/><path class="cls-2" d="M848.89,489.8V476.15h2.66a9.18,9.18,0,0,1,3.21.37A2.55,2.55,0,0,1,856,477.6a3.23,3.23,0,0,1,.4,1.63,3.93,3.93,0,0,1-.24,1.37,3.7,3.7,0,0,1-.7,1.18,4.76,4.76,0,0,1-1.35,1,4.35,4.35,0,0,1,2.2,1.6,3.64,3.64,0,0,1,.58,1.9,3.49,3.49,0,0,1-.49,1.76,3.28,3.28,0,0,1-1.37,1.31,6.44,6.44,0,0,1-2.81.46Zm1.78-7.5h1.86a4.12,4.12,0,0,0,1.32-.8,2.79,2.79,0,0,0,.63-.93,3,3,0,0,0,.21-1.13,1.78,1.78,0,0,0-.57-1.44,3.62,3.62,0,0,0-2.21-.48h-1.24Zm0,6.13h1.68a2.86,2.86,0,0,0,2.08-.66,2.17,2.17,0,0,0,.67-1.6,2.29,2.29,0,0,0-.37-1.26,2.5,2.5,0,0,0-1.14-.91,6.47,6.47,0,0,0-2.43-.34h-.49Z" transform="translate(-261.35 -271.16)"/><path class="cls-2" d="M867.53,480v9.82H865.9v-2.15a5.89,5.89,0,0,1-1.76,1.82,3.61,3.61,0,0,1-1.93.61,2.85,2.85,0,0,1-1.58-.46,2.43,2.43,0,0,1-1-1.21,9.88,9.88,0,0,1-.28-2.93V480H861v5.69a8,8,0,0,0,.14,1.87,1.46,1.46,0,0,0,.5.74,1.24,1.24,0,0,0,.79.29,3,3,0,0,0,1.85-.81,6.58,6.58,0,0,0,1.64-2.05V480Z" transform="translate(-261.35 -271.16)"/><path class="cls-2" d="M878.43,489.51a9.8,9.8,0,0,1-3.13.55,5.05,5.05,0,0,1-2.62-.68,4.82,4.82,0,0,1-1.79-1.85,5.4,5.4,0,0,1-.64-2.65,5.07,5.07,0,0,1,1.46-3.71,4.75,4.75,0,0,1,3.51-1.48,10.09,10.09,0,0,1,3.22.57v1.57a7.52,7.52,0,0,0-3.07-.78,3.4,3.4,0,0,0-1.69.44,2.92,2.92,0,0,0-1.22,1.38,4.6,4.6,0,0,0-.43,1.93,4.4,4.4,0,0,0,.83,2.53,3,3,0,0,0,2.61,1.2,7.39,7.39,0,0,0,1.05-.07,13.21,13.21,0,0,0,1.92-.55Z" transform="translate(-261.35 -271.16)"/><path class="cls-2" d="M881.32,489.8V475.61H883v8.91l4.72-4.54h2.16l-4.67,4.5L890,489.8h-2.25L883,484.52v5.27Z" transform="translate(-261.35 -271.16)"/><path class="cls-2" d="M899.76,489.14a8.7,8.7,0,0,1-3.71.93,4.36,4.36,0,0,1-2.37-.66,4.69,4.69,0,0,1-1.67-1.88,5.65,5.65,0,0,1-.63-2.62,5.87,5.87,0,0,1,.6-2.58,4.61,4.61,0,0,1,1.67-1.93,4.32,4.32,0,0,1,2.39-.69,3.5,3.5,0,0,1,2.81,1.25,5.85,5.85,0,0,1,1.06,3.84v.35h-6.77a4.09,4.09,0,0,0,.43,1.87,3,3,0,0,0,1.12,1.27,3,3,0,0,0,1.58.42,7.35,7.35,0,0,0,3.5-1.06Zm-6.53-5.22h4.9v-.24a2.9,2.9,0,0,0-.59-1.91,1.94,1.94,0,0,0-1.57-.71,2.36,2.36,0,0,0-1.72.72A4.12,4.12,0,0,0,893.23,483.92Z" transform="translate(-261.35 -271.16)"/><path class="cls-2" d="M910.51,489.4a9.07,9.07,0,0,1-1.67.58,5.63,5.63,0,0,1-1,.09,4.41,4.41,0,0,1-1.88-.4,2.77,2.77,0,0,1-1.29-1.17,5.06,5.06,0,0,1-.43-2.39v-4h-2.45V480.8h2.45v-4h1.63v4h4.37v1.36h-4.37v3.93a3.58,3.58,0,0,0,.28,1.67,1.73,1.73,0,0,0,.75.72,2.52,2.52,0,0,0,1.11.23,5.05,5.05,0,0,0,2.5-.75Z" transform="translate(-261.35 -271.16)"/><path class="cls-2" d="M913.23,481.74v-1.1a2,2,0,0,0,1.49-1.26,3.05,3.05,0,0,0,.2-1.16,1.49,1.49,0,0,1-1.2-.46,1.51,1.51,0,0,1-.39-1,1.38,1.38,0,0,1,.43-1,1.4,1.4,0,0,1,1-.42A1.62,1.62,0,0,1,916,476a2.62,2.62,0,0,1,.54,1.74,4.05,4.05,0,0,1-.42,1.83A4.46,4.46,0,0,1,915,481,3.41,3.41,0,0,1,913.23,481.74Zm4.3,0v-1.1a2.27,2.27,0,0,0,1-.47,2.16,2.16,0,0,0,.53-.78,3,3,0,0,0,.2-1.16,1.49,1.49,0,0,1-1.2-.46,1.51,1.51,0,0,1-.39-1,1.44,1.44,0,0,1,1.42-1.45,1.63,1.63,0,0,1,1.28.64,2.62,2.62,0,0,1,.54,1.74,4.05,4.05,0,0,1-.42,1.83A4.44,4.44,0,0,1,919.3,481,3.4,3.4,0,0,1,917.53,481.74Z" transform="translate(-261.35 -271.16)"/><path class="cls-2" d="M930,475.34v17.73H923V491.7h5.46v-15H923v-1.36Z" transform="translate(-261.35 -271.16)"/></svg>