<svg id="Text" xmlns="http://www.w3.org/2000/svg" viewBox="0 0 603.26 310.88"><defs><style>.cls-1{fill:#fff;}.cls-2{fill:#999;}.cls-3{fill:#e48436;}</style></defs><title>gp-splash-plus-logo</title><path class="cls-1" d="M312.69,579.79a6.56,6.56,0,0,0,3-.65v-2.76h-1.9a.59.59,0,0,1-.43-.15.5.5,0,0,1-.16-.37v-1.6h5.05v6.14a8.4,8.4,0,0,1-1.2.73,7.71,7.71,0,0,1-1.33.51,10.11,10.11,0,0,1-1.52.3,14.29,14.29,0,0,1-1.74.1,7.92,7.92,0,0,1-3.06-.58,7.17,7.17,0,0,1-4-4.06,8.32,8.32,0,0,1-.57-3.12,8.58,8.58,0,0,1,.56-3.14,6.91,6.91,0,0,1,4.06-4.05,9,9,0,0,1,3.28-.57,8.55,8.55,0,0,1,3.22.55,7.41,7.41,0,0,1,2.3,1.43l-.82,1.28a.73.73,0,0,1-.64.39,1,1,0,0,1-.51-.17l-.69-.4a4.65,4.65,0,0,0-.78-.35,6.32,6.32,0,0,0-1-.24,7,7,0,0,0-1.22-.09,5.24,5.24,0,0,0-2,.38,4.3,4.3,0,0,0-1.55,1.08,4.89,4.89,0,0,0-1,1.69,6.63,6.63,0,0,0-.35,2.21,6.9,6.9,0,0,0,.37,2.34,4.9,4.9,0,0,0,1,1.73,4.42,4.42,0,0,0,1.57,1.08A5.22,5.22,0,0,0,312.69,579.79Z" transform="translate(-294.48 -271.16)"/><path class="cls-1" d="M324.08,581.87h-2.83V566.69h2.83Z" transform="translate(-294.48 -271.16)"/><path class="cls-1" d="M338.2,566.69V569h-4.57v12.86h-2.82V569h-4.59v-2.32Z" transform="translate(-294.48 -271.16)"/><path class="cls-1" d="M352.8,581.87H350v-6.64h-7.12v6.64H340V566.69h2.85v6.53H350v-6.53h2.85Z" transform="translate(-294.48 -271.16)"/><path class="cls-1" d="M362,579.6a3.72,3.72,0,0,0,1.46-.27,3,3,0,0,0,1.09-.77,3.34,3.34,0,0,0,.68-1.2,4.94,4.94,0,0,0,.24-1.58v-9.09h2.82v9.09a7,7,0,0,1-.44,2.5,5.66,5.66,0,0,1-1.25,2,5.72,5.72,0,0,1-2,1.3,7.61,7.61,0,0,1-5.25,0,5.57,5.57,0,0,1-3.23-3.29,7,7,0,0,1-.44-2.5v-9.09h2.82v9.08a4.94,4.94,0,0,0,.24,1.58,3.45,3.45,0,0,0,.68,1.2,3,3,0,0,0,1.09.77A3.72,3.72,0,0,0,362,579.6Z" transform="translate(-294.48 -271.16)"/><path class="cls-1" d="M371.16,581.87V566.69h5.24a9.91,9.91,0,0,1,2.55.28,4.84,4.84,0,0,1,1.73.81,3.13,3.13,0,0,1,1,1.27,4.28,4.28,0,0,1,.31,1.68,3.31,3.31,0,0,1-.16,1,3,3,0,0,1-.49.91,3.65,3.65,0,0,1-.84.77,5.07,5.07,0,0,1-1.21.59q3.13.7,3.13,3.38a4.31,4.31,0,0,1-.37,1.79,3.93,3.93,0,0,1-1.07,1.41,5.12,5.12,0,0,1-1.73.93,7.58,7.58,0,0,1-2.35.34Zm2.82-8.61h2.26a3.78,3.78,0,0,0,2.18-.52,1.9,1.9,0,0,0,.75-1.67,2,2,0,0,0-.67-1.69,3.52,3.52,0,0,0-2.1-.5H374Zm0,2v4.45h2.87a4,4,0,0,0,1.32-.19,2.29,2.29,0,0,0,.85-.5,1.85,1.85,0,0,0,.46-.73,2.78,2.78,0,0,0,.14-.89,2.37,2.37,0,0,0-.16-.89,1.67,1.67,0,0,0-.49-.67,2.3,2.3,0,0,0-.86-.42,4.74,4.74,0,0,0-1.27-.15Z" transform="translate(-294.48 -271.16)"/><path class="cls-1" d="M388.41,574.45h5.44v2.16h-5.44Z" transform="translate(-294.48 -271.16)"/><path class="cls-1" d="M407.45,579.79a6.56,6.56,0,0,0,3-.65v-2.76h-1.9a.59.59,0,0,1-.43-.15.5.5,0,0,1-.16-.37v-1.6H413v6.14a8.4,8.4,0,0,1-1.2.73,7.71,7.71,0,0,1-1.33.51,10.11,10.11,0,0,1-1.52.3,14.29,14.29,0,0,1-1.74.1,7.92,7.92,0,0,1-3.06-.58,7.17,7.17,0,0,1-4-4.06,8.32,8.32,0,0,1-.57-3.12,8.58,8.58,0,0,1,.56-3.14,6.91,6.91,0,0,1,4.06-4.05,9,9,0,0,1,3.28-.57,8.55,8.55,0,0,1,3.22.55,7.41,7.41,0,0,1,2.3,1.43l-.82,1.28a.73.73,0,0,1-.64.39A1,1,0,0,1,411,570l-.69-.4a4.65,4.65,0,0,0-.78-.35,6.32,6.32,0,0,0-1-.24,7,7,0,0,0-1.22-.09,5.24,5.24,0,0,0-2,.38,4.3,4.3,0,0,0-1.55,1.08,4.89,4.89,0,0,0-1,1.69,6.63,6.63,0,0,0-.35,2.21,6.9,6.9,0,0,0,.37,2.34,4.9,4.9,0,0,0,1,1.73,4.42,4.42,0,0,0,1.57,1.08A5.22,5.22,0,0,0,407.45,579.79Z" transform="translate(-294.48 -271.16)"/><path class="cls-1" d="M418.85,581.87H416V566.69h2.83Z" transform="translate(-294.48 -271.16)"/><path class="cls-1" d="M433,566.69V569h-4.57v12.86h-2.82V569H421v-2.32Z" transform="translate(-294.48 -271.16)"/><path class="cls-1" d="M444.33,566.69v2.25H437.6v4.21h5.3v2.17h-5.3v4.29h6.73v2.26h-9.58V566.69Z" transform="translate(-294.48 -271.16)"/><path class="cls-1" d="M460.12,581.87h-2.18a1,1,0,0,1-.6-.18,1,1,0,0,1-.34-.46l-1.13-3.1h-6.29l-1.13,3.1a1,1,0,0,1-.33.44.93.93,0,0,1-.6.2h-2.19l6-15.18h2.89Zm-9.83-5.73h4.84l-1.85-5c-.08-.22-.18-.49-.28-.79s-.2-.64-.3-1q-.15.53-.29,1t-.28.81Z" transform="translate(-294.48 -271.16)"/><path class="cls-1" d="M465.26,574.45h5.44v2.16h-5.44Z" transform="translate(-294.48 -271.16)"/><path class="cls-1" d="M484.3,579.79a6.56,6.56,0,0,0,3-.65v-2.76h-1.9a.59.59,0,0,1-.43-.15.5.5,0,0,1-.16-.37v-1.6h5.05v6.14a8.4,8.4,0,0,1-1.2.73,7.71,7.71,0,0,1-1.33.51,10.11,10.11,0,0,1-1.52.3,14.29,14.29,0,0,1-1.74.1,7.92,7.92,0,0,1-3.06-.58,7.17,7.17,0,0,1-4-4.06,8.32,8.32,0,0,1-.57-3.12,8.58,8.58,0,0,1,.56-3.14,6.91,6.91,0,0,1,4.06-4.05,9,9,0,0,1,3.28-.57,8.55,8.55,0,0,1,3.22.55,7.41,7.41,0,0,1,2.3,1.43l-.82,1.28a.73.73,0,0,1-.64.39,1,1,0,0,1-.51-.17l-.69-.4a4.65,4.65,0,0,0-.78-.35,6.32,6.32,0,0,0-1-.24,7,7,0,0,0-1.22-.09,5.24,5.24,0,0,0-2,.38,4.3,4.3,0,0,0-1.55,1.08,4.89,4.89,0,0,0-1,1.69,6.63,6.63,0,0,0-.35,2.21,6.9,6.9,0,0,0,.37,2.34,4.9,4.9,0,0,0,1,1.73,4.42,4.42,0,0,0,1.57,1.08A5.22,5.22,0,0,0,484.3,579.79Z" transform="translate(-294.48 -271.16)"/><path class="cls-1" d="M507.08,574.28a8.41,8.41,0,0,1-.56,3.09,7.33,7.33,0,0,1-1.56,2.46,7.08,7.08,0,0,1-2.43,1.62,8.76,8.76,0,0,1-6.28,0,7.13,7.13,0,0,1-2.44-1.62,7.29,7.29,0,0,1-1.57-2.46,8.87,8.87,0,0,1,0-6.18,7.3,7.3,0,0,1,1.57-2.46,7.14,7.14,0,0,1,2.44-1.62,8.22,8.22,0,0,1,3.15-.58,8.11,8.11,0,0,1,3.14.59,7.18,7.18,0,0,1,2.43,1.62,7.27,7.27,0,0,1,1.56,2.46A8.41,8.41,0,0,1,507.08,574.28Zm-2.9,0a7.06,7.06,0,0,0-.33-2.24,4.73,4.73,0,0,0-1-1.69,4.1,4.1,0,0,0-1.51-1.06,5.65,5.65,0,0,0-4,0,4.13,4.13,0,0,0-1.52,1.06,4.76,4.76,0,0,0-1,1.69,7.65,7.65,0,0,0,0,4.48,4.71,4.71,0,0,0,1,1.68,4.16,4.16,0,0,0,1.52,1.06,5.65,5.65,0,0,0,4,0,4.12,4.12,0,0,0,1.51-1.06,4.68,4.68,0,0,0,1-1.68A7.07,7.07,0,0,0,504.18,574.28Z" transform="translate(-294.48 -271.16)"/><path class="cls-1" d="M516.27,579.79a6.56,6.56,0,0,0,3-.65v-2.76h-1.9a.59.59,0,0,1-.43-.15.5.5,0,0,1-.16-.37v-1.6h5.05v6.14a8.4,8.4,0,0,1-1.2.73,7.71,7.71,0,0,1-1.33.51,10.11,10.11,0,0,1-1.52.3,14.29,14.29,0,0,1-1.74.1,7.92,7.92,0,0,1-3.06-.58,7.17,7.17,0,0,1-4-4.06,8.32,8.32,0,0,1-.57-3.12,8.58,8.58,0,0,1,.56-3.14,6.91,6.91,0,0,1,4.06-4.05,9,9,0,0,1,3.28-.57,8.55,8.55,0,0,1,3.22.55,7.41,7.41,0,0,1,2.3,1.43l-.82,1.28a.73.73,0,0,1-.64.39,1,1,0,0,1-.51-.17l-.69-.4a4.65,4.65,0,0,0-.78-.35,6.32,6.32,0,0,0-1-.24,7,7,0,0,0-1.22-.09,5.24,5.24,0,0,0-2,.38,4.3,4.3,0,0,0-1.55,1.08,4.89,4.89,0,0,0-1,1.69,6.63,6.63,0,0,0-.35,2.21,6.9,6.9,0,0,0,.37,2.34,4.9,4.9,0,0,0,1,1.73,4.42,4.42,0,0,0,1.57,1.08A5.22,5.22,0,0,0,516.27,579.79Z" transform="translate(-294.48 -271.16)"/><path class="cls-1" d="M532.62,569.45a.79.79,0,0,1-.27.33.68.68,0,0,1-.36.09.92.92,0,0,1-.47-.16l-.62-.36a5.08,5.08,0,0,0-.83-.36,3.51,3.51,0,0,0-1.13-.16,3.34,3.34,0,0,0-1,.14,2.18,2.18,0,0,0-.74.39,1.58,1.58,0,0,0-.45.6,2,2,0,0,0-.15.77,1.34,1.34,0,0,0,.3.89,2.5,2.5,0,0,0,.79.61,7.33,7.33,0,0,0,1.12.45l1.29.42a12.64,12.64,0,0,1,1.29.53,4.45,4.45,0,0,1,1.12.76,3.44,3.44,0,0,1,.79,1.12,3.89,3.89,0,0,1,.3,1.61,5.24,5.24,0,0,1-.35,1.93,4.44,4.44,0,0,1-1,1.56,4.84,4.84,0,0,1-1.65,1.05,6.1,6.1,0,0,1-2.24.38,7.19,7.19,0,0,1-1.43-.14,7.54,7.54,0,0,1-1.35-.4,7,7,0,0,1-1.21-.63,6,6,0,0,1-1-.82l.82-1.35a1.07,1.07,0,0,1,.28-.25.68.68,0,0,1,.36-.1,1,1,0,0,1,.57.22l.72.48a5.55,5.55,0,0,0,1,.48,3.77,3.77,0,0,0,1.35.22,2.77,2.77,0,0,0,1.87-.57,2.06,2.06,0,0,0,.66-1.64,1.52,1.52,0,0,0-.3-1,2.42,2.42,0,0,0-.79-.64,6,6,0,0,0-1.12-.44l-1.28-.39a10.92,10.92,0,0,1-1.28-.5,4.12,4.12,0,0,1-1.12-.77,3.48,3.48,0,0,1-.79-1.18,4.51,4.51,0,0,1-.3-1.75,4.18,4.18,0,0,1,1.3-3,4.77,4.77,0,0,1,1.56-1,5.68,5.68,0,0,1,2.11-.37,7.08,7.08,0,0,1,2.48.42,5.58,5.58,0,0,1,1.93,1.18Z" transform="translate(-294.48 -271.16)"/><path class="cls-1" d="M539.32,574.45h5.44v2.16h-5.44Z" transform="translate(-294.48 -271.16)"/><path class="cls-1" d="M558.37,579.79a6.56,6.56,0,0,0,3-.65v-2.76h-1.9a.59.59,0,0,1-.43-.15.5.5,0,0,1-.16-.37v-1.6h5.05v6.14a8.4,8.4,0,0,1-1.2.73,7.71,7.71,0,0,1-1.33.51,10.11,10.11,0,0,1-1.52.3,14.29,14.29,0,0,1-1.74.1,7.92,7.92,0,0,1-3.06-.58,7.17,7.17,0,0,1-4-4.06,8.32,8.32,0,0,1-.57-3.12,8.58,8.58,0,0,1,.56-3.14,6.91,6.91,0,0,1,4.06-4.05,9,9,0,0,1,3.28-.57,8.55,8.55,0,0,1,3.22.55,7.41,7.41,0,0,1,2.3,1.43l-.82,1.28a.73.73,0,0,1-.64.39A1,1,0,0,1,562,570l-.69-.4a4.65,4.65,0,0,0-.78-.35,6.32,6.32,0,0,0-1-.24,7,7,0,0,0-1.22-.09,5.24,5.24,0,0,0-2,.38,4.3,4.3,0,0,0-1.55,1.08,4.89,4.89,0,0,0-1,1.69,6.63,6.63,0,0,0-.35,2.21,6.9,6.9,0,0,0,.37,2.34,4.9,4.9,0,0,0,1,1.73,4.42,4.42,0,0,0,1.57,1.08A5.22,5.22,0,0,0,558.37,579.79Z" transform="translate(-294.48 -271.16)"/><path class="cls-1" d="M569.76,581.87h-2.83V566.69h2.83Z" transform="translate(-294.48 -271.16)"/><path class="cls-1" d="M583.87,566.69V569h-4.57v12.86h-2.82V569h-4.59v-2.32Z" transform="translate(-294.48 -271.16)"/><path class="cls-1" d="M588.49,579.54h6.08v2.33h-8.9V566.69h2.82Z" transform="translate(-294.48 -271.16)"/><path class="cls-1" d="M609.87,581.87h-2.18a1,1,0,0,1-.6-.18,1,1,0,0,1-.34-.46l-1.13-3.1h-6.29l-1.13,3.1a1,1,0,0,1-.33.44.93.93,0,0,1-.6.2h-2.19l6-15.18h2.89ZM600,576.14h4.84l-1.85-5c-.08-.22-.18-.49-.28-.79s-.2-.64-.3-1q-.15.53-.29,1t-.28.81Z" transform="translate(-294.48 -271.16)"/><path class="cls-1" d="M611.43,581.87V566.69h5.24a9.92,9.92,0,0,1,2.55.28,4.84,4.84,0,0,1,1.73.81,3.14,3.14,0,0,1,1,1.27,4.28,4.28,0,0,1,.31,1.68,3.29,3.29,0,0,1-.16,1,2.94,2.94,0,0,1-.49.91,3.65,3.65,0,0,1-.84.77,5.08,5.08,0,0,1-1.21.59q3.13.7,3.13,3.38a4.31,4.31,0,0,1-.37,1.79,3.93,3.93,0,0,1-1.07,1.41,5.11,5.11,0,0,1-1.73.93,7.58,7.58,0,0,1-2.35.34Zm2.82-8.61h2.26a3.78,3.78,0,0,0,2.18-.52,1.9,1.9,0,0,0,.75-1.67,2,2,0,0,0-.67-1.69,3.52,3.52,0,0,0-2.1-.5h-2.42Zm0,2v4.45h2.87a4,4,0,0,0,1.32-.19,2.29,2.29,0,0,0,.85-.5,1.85,1.85,0,0,0,.46-.73,2.77,2.77,0,0,0,.14-.89,2.38,2.38,0,0,0-.16-.89,1.68,1.68,0,0,0-.49-.67,2.31,2.31,0,0,0-.86-.42,4.74,4.74,0,0,0-1.27-.15Z" transform="translate(-294.48 -271.16)"/><path class="cls-1" d="M628.69,574.45h5.44v2.16h-5.44Z" transform="translate(-294.48 -271.16)"/><path class="cls-1" d="M640.76,581.87V566.69H646a9.9,9.9,0,0,1,2.55.28,4.83,4.83,0,0,1,1.73.81,3.13,3.13,0,0,1,1,1.27,4.28,4.28,0,0,1,.31,1.68,3.32,3.32,0,0,1-.16,1,3,3,0,0,1-.49.91,3.67,3.67,0,0,1-.84.77,5.08,5.08,0,0,1-1.21.59q3.13.7,3.13,3.38a4.32,4.32,0,0,1-.37,1.79,3.93,3.93,0,0,1-1.07,1.41,5.11,5.11,0,0,1-1.73.93,7.58,7.58,0,0,1-2.35.34Zm2.82-8.61h2.26a3.78,3.78,0,0,0,2.18-.52,1.9,1.9,0,0,0,.75-1.67,2,2,0,0,0-.67-1.69,3.51,3.51,0,0,0-2.1-.5h-2.42Zm0,2v4.45h2.87a4,4,0,0,0,1.32-.19,2.29,2.29,0,0,0,.85-.5,1.85,1.85,0,0,0,.46-.73,2.77,2.77,0,0,0,.14-.89,2.38,2.38,0,0,0-.16-.89,1.67,1.67,0,0,0-.49-.67,2.3,2.3,0,0,0-.86-.42,4.74,4.74,0,0,0-1.27-.15Z" transform="translate(-294.48 -271.16)"/><path class="cls-1" d="M657.62,581.87h-2.83V566.69h2.83Z" transform="translate(-294.48 -271.16)"/><path class="cls-1" d="M671.74,566.69V569h-4.57v12.86h-2.82V569h-4.59v-2.32Z" transform="translate(-294.48 -271.16)"/><path class="cls-1" d="M673.53,581.87V566.69h5.24a9.9,9.9,0,0,1,2.55.28,4.83,4.83,0,0,1,1.73.81,3.13,3.13,0,0,1,1,1.27,4.28,4.28,0,0,1,.31,1.68,3.32,3.32,0,0,1-.16,1,3,3,0,0,1-.49.91,3.67,3.67,0,0,1-.84.77,5.08,5.08,0,0,1-1.21.59q3.13.7,3.13,3.38a4.32,4.32,0,0,1-.37,1.79,3.93,3.93,0,0,1-1.07,1.41,5.11,5.11,0,0,1-1.73.93,7.58,7.58,0,0,1-2.35.34Zm2.82-8.61h2.26a3.78,3.78,0,0,0,2.18-.52,1.9,1.9,0,0,0,.75-1.67,2,2,0,0,0-.67-1.69,3.51,3.51,0,0,0-2.1-.5h-2.42Zm0,2v4.45h2.87a4,4,0,0,0,1.32-.19,2.29,2.29,0,0,0,.85-.5,1.85,1.85,0,0,0,.46-.73,2.77,2.77,0,0,0,.14-.89,2.38,2.38,0,0,0-.16-.89,1.67,1.67,0,0,0-.49-.67,2.3,2.3,0,0,0-.86-.42,4.74,4.74,0,0,0-1.27-.15Z" transform="translate(-294.48 -271.16)"/><path class="cls-1" d="M693.32,579.6a3.71,3.71,0,0,0,1.46-.27,3.05,3.05,0,0,0,1.09-.77,3.34,3.34,0,0,0,.68-1.2,4.91,4.91,0,0,0,.24-1.58v-9.09h2.83v9.09a7,7,0,0,1-.44,2.5,5.65,5.65,0,0,1-1.25,2,5.73,5.73,0,0,1-2,1.3,7.61,7.61,0,0,1-5.25,0,5.57,5.57,0,0,1-3.23-3.29,7,7,0,0,1-.44-2.5v-9.09h2.82v9.08a4.94,4.94,0,0,0,.24,1.58,3.44,3.44,0,0,0,.68,1.2,3,3,0,0,0,1.09.77A3.71,3.71,0,0,0,693.32,579.6Z" transform="translate(-294.48 -271.16)"/><path class="cls-1" d="M712.94,578.29a.53.53,0,0,1,.4.18l1.11,1.21a6.11,6.11,0,0,1-2.27,1.75,7.83,7.83,0,0,1-3.24.61,7.66,7.66,0,0,1-3-.58,6.7,6.7,0,0,1-2.3-1.61,7,7,0,0,1-1.46-2.46,9.22,9.22,0,0,1-.51-3.12,8.39,8.39,0,0,1,.57-3.13,7.08,7.08,0,0,1,4.06-4.05,8.46,8.46,0,0,1,3.17-.57,7.48,7.48,0,0,1,3,.54,6.93,6.93,0,0,1,2.17,1.43l-.95,1.31a.87.87,0,0,1-.22.22.61.61,0,0,1-.36.09.83.83,0,0,1-.49-.19,6.05,6.05,0,0,0-.64-.41,5.18,5.18,0,0,0-1-.41,5.68,5.68,0,0,0-3.48.18,4.37,4.37,0,0,0-1.54,1.07,4.91,4.91,0,0,0-1,1.69,6.48,6.48,0,0,0-.36,2.23,6.65,6.65,0,0,0,.36,2.28,5,5,0,0,0,1,1.68,4.2,4.2,0,0,0,1.46,1,4.52,4.52,0,0,0,1.81.36,7.85,7.85,0,0,0,1-.06,4.45,4.45,0,0,0,.86-.2,3.8,3.8,0,0,0,.75-.35,4.6,4.6,0,0,0,.7-.53,1,1,0,0,1,.22-.15A.55.55,0,0,1,712.94,578.29Z" transform="translate(-294.48 -271.16)"/><path class="cls-1" d="M719.5,573.05h.66a1.71,1.71,0,0,0,.66-.11,1.12,1.12,0,0,0,.45-.35l4.19-5.3a1.52,1.52,0,0,1,.55-.47,1.77,1.77,0,0,1,.73-.13h2.44L724.07,573a4.74,4.74,0,0,1-.46.49,2.13,2.13,0,0,1-.47.33,2.08,2.08,0,0,1,.63.36,3.32,3.32,0,0,1,.54.59l5.27,7.11h-2.5a1.55,1.55,0,0,1-.75-.14,1.17,1.17,0,0,1-.41-.42l-4.29-5.61a1.27,1.27,0,0,0-.47-.39,1.84,1.84,0,0,0-.75-.12h-.89v6.68h-2.82V566.68h2.82Z" transform="translate(-294.48 -271.16)"/><path class="cls-1" d="M740.81,566.69v2.25h-6.73v4.21h5.3v2.17h-5.3v4.29h6.73v2.26h-9.58V566.69Z" transform="translate(-294.48 -271.16)"/><path class="cls-1" d="M754,566.69V569h-4.57v12.86h-2.82V569H742v-2.32Z" transform="translate(-294.48 -271.16)"/><path class="cls-1" d="M759.33,574.45h5.44v2.16h-5.44Z" transform="translate(-294.48 -271.16)"/><path class="cls-1" d="M778.37,579.79a6.56,6.56,0,0,0,3-.65v-2.76h-1.9a.59.59,0,0,1-.43-.15.5.5,0,0,1-.16-.37v-1.6h5v6.14a8.32,8.32,0,0,1-1.2.73,7.67,7.67,0,0,1-1.33.51,10.11,10.11,0,0,1-1.52.3,14.29,14.29,0,0,1-1.74.1,7.93,7.93,0,0,1-3.06-.58,7.17,7.17,0,0,1-4-4.06,8.31,8.31,0,0,1-.57-3.12,8.58,8.58,0,0,1,.56-3.14,6.92,6.92,0,0,1,4.06-4.05,9,9,0,0,1,3.28-.57,8.55,8.55,0,0,1,3.22.55,7.42,7.42,0,0,1,2.3,1.43l-.82,1.28a.73.73,0,0,1-.64.39A1,1,0,0,1,782,570l-.69-.4a4.62,4.62,0,0,0-.78-.35,6.3,6.3,0,0,0-1-.24,7,7,0,0,0-1.22-.09,5.24,5.24,0,0,0-2,.38,4.3,4.3,0,0,0-1.55,1.08,4.9,4.9,0,0,0-1,1.69,6.64,6.64,0,0,0-.35,2.21,6.89,6.89,0,0,0,.37,2.34,4.9,4.9,0,0,0,1,1.73,4.43,4.43,0,0,0,1.58,1.08A5.22,5.22,0,0,0,778.37,579.79Z" transform="translate(-294.48 -271.16)"/><path class="cls-1" d="M789.76,581.87h-2.83V566.69h2.83Z" transform="translate(-294.48 -271.16)"/><path class="cls-1" d="M803.88,566.69V569h-4.57v12.86h-2.82V569H791.9v-2.32Z" transform="translate(-294.48 -271.16)"/><path class="cls-1" d="M805.67,581.87V566.69h5.24a9.9,9.9,0,0,1,2.55.28,4.83,4.83,0,0,1,1.73.81,3.13,3.13,0,0,1,1,1.27,4.28,4.28,0,0,1,.31,1.68,3.32,3.32,0,0,1-.16,1,3,3,0,0,1-.49.91,3.67,3.67,0,0,1-.84.77,5.08,5.08,0,0,1-1.21.59q3.13.7,3.13,3.38a4.32,4.32,0,0,1-.37,1.79,3.93,3.93,0,0,1-1.07,1.41,5.11,5.11,0,0,1-1.73.93,7.58,7.58,0,0,1-2.35.34Zm2.82-8.61h2.26a3.78,3.78,0,0,0,2.18-.52,1.9,1.9,0,0,0,.75-1.67,2,2,0,0,0-.67-1.69,3.51,3.51,0,0,0-2.1-.5H808.5Zm0,2v4.45h2.87a4,4,0,0,0,1.32-.19,2.29,2.29,0,0,0,.85-.5,1.85,1.85,0,0,0,.46-.73,2.77,2.77,0,0,0,.14-.89,2.38,2.38,0,0,0-.16-.89,1.67,1.67,0,0,0-.49-.67,2.3,2.3,0,0,0-.86-.42,4.74,4.74,0,0,0-1.27-.15Z" transform="translate(-294.48 -271.16)"/><path class="cls-1" d="M825.46,579.6a3.71,3.71,0,0,0,1.46-.27,3.05,3.05,0,0,0,1.09-.77,3.34,3.34,0,0,0,.68-1.2,4.91,4.91,0,0,0,.24-1.58v-9.09h2.83v9.09a7,7,0,0,1-.44,2.5,5.65,5.65,0,0,1-1.25,2,5.73,5.73,0,0,1-2,1.3,7.61,7.61,0,0,1-5.25,0,5.57,5.57,0,0,1-3.23-3.29,7,7,0,0,1-.44-2.5v-9.09H822v9.08a4.94,4.94,0,0,0,.24,1.58,3.44,3.44,0,0,0,.68,1.2,3,3,0,0,0,1.09.77A3.71,3.71,0,0,0,825.46,579.6Z" transform="translate(-294.48 -271.16)"/><path class="cls-1" d="M845.08,578.29a.53.53,0,0,1,.4.18l1.11,1.21a6.11,6.11,0,0,1-2.27,1.75,7.83,7.83,0,0,1-3.24.61,7.66,7.66,0,0,1-3-.58,6.7,6.7,0,0,1-2.3-1.61,7,7,0,0,1-1.46-2.46,9.22,9.22,0,0,1-.51-3.12,8.39,8.39,0,0,1,.57-3.13,7.08,7.08,0,0,1,4.06-4.05,8.46,8.46,0,0,1,3.17-.57,7.48,7.48,0,0,1,3,.54,6.93,6.93,0,0,1,2.17,1.43l-.95,1.31a.87.87,0,0,1-.22.22.61.61,0,0,1-.36.09.83.83,0,0,1-.49-.19,6.05,6.05,0,0,0-.64-.41,5.18,5.18,0,0,0-1-.41,5.68,5.68,0,0,0-3.48.18,4.37,4.37,0,0,0-1.54,1.07,4.91,4.91,0,0,0-1,1.69,6.48,6.48,0,0,0-.36,2.23,6.65,6.65,0,0,0,.36,2.28,5,5,0,0,0,1,1.68,4.2,4.2,0,0,0,1.46,1,4.52,4.52,0,0,0,1.81.36,7.85,7.85,0,0,0,1-.06,4.45,4.45,0,0,0,.86-.2,3.8,3.8,0,0,0,.75-.35,4.6,4.6,0,0,0,.7-.53,1,1,0,0,1,.22-.15A.55.55,0,0,1,845.08,578.29Z" transform="translate(-294.48 -271.16)"/><path class="cls-1" d="M851.64,573.05h.66a1.71,1.71,0,0,0,.66-.11,1.12,1.12,0,0,0,.45-.35l4.19-5.3a1.52,1.52,0,0,1,.55-.47,1.77,1.77,0,0,1,.73-.13h2.44L856.21,573a4.74,4.74,0,0,1-.46.49,2.13,2.13,0,0,1-.47.33,2.08,2.08,0,0,1,.63.36,3.32,3.32,0,0,1,.54.59l5.27,7.11h-2.5a1.55,1.55,0,0,1-.75-.14,1.17,1.17,0,0,1-.41-.42l-4.29-5.61a1.27,1.27,0,0,0-.47-.39,1.84,1.84,0,0,0-.75-.12h-.89v6.68h-2.82V566.68h2.82Z" transform="translate(-294.48 -271.16)"/><path class="cls-1" d="M873,566.69v2.25h-6.73v4.21h5.3v2.17h-5.3v4.29H873v2.26h-9.58V566.69Z" transform="translate(-294.48 -271.16)"/><path class="cls-1" d="M886.1,566.69V569h-4.57v12.86h-2.82V569h-4.59v-2.32Z" transform="translate(-294.48 -271.16)"/><path class="cls-1" d="M595,526.28a8.41,8.41,0,0,1-.56,3.09,7.33,7.33,0,0,1-1.56,2.46,7.08,7.08,0,0,1-2.43,1.62,8.76,8.76,0,0,1-6.28,0,7.13,7.13,0,0,1-2.44-1.62,7.29,7.29,0,0,1-1.57-2.46,8.87,8.87,0,0,1,0-6.18,7.3,7.3,0,0,1,1.57-2.46,7.14,7.14,0,0,1,2.44-1.62,8.22,8.22,0,0,1,3.15-.58,8.11,8.11,0,0,1,3.14.59,7.18,7.18,0,0,1,2.43,1.62,7.27,7.27,0,0,1,1.56,2.46A8.41,8.41,0,0,1,595,526.28Zm-2.9,0a7.06,7.06,0,0,0-.33-2.24,4.73,4.73,0,0,0-1-1.69,4.1,4.1,0,0,0-1.51-1.06,5.65,5.65,0,0,0-4,0,4.13,4.13,0,0,0-1.52,1.06,4.76,4.76,0,0,0-1,1.69,7.65,7.65,0,0,0,0,4.48,4.71,4.71,0,0,0,1,1.68,4.16,4.16,0,0,0,1.52,1.06,5.65,5.65,0,0,0,4,0,4.12,4.12,0,0,0,1.51-1.06,4.68,4.68,0,0,0,1-1.68A7.07,7.07,0,0,0,592.14,526.28Z" transform="translate(-294.48 -271.16)"/><path class="cls-1" d="M599.06,518.71a.72.72,0,0,1,.23.06.77.77,0,0,1,.19.14,2.2,2.2,0,0,1,.21.24l8,10.15c0-.25,0-.48-.06-.72s0-.45,0-.66v-9.23h2.49v15.18h-1.46a1.29,1.29,0,0,1-.56-.11,1.22,1.22,0,0,1-.43-.38l-7.94-10.11c0,.22,0,.45,0,.67s0,.42,0,.6v9.32h-2.49V518.69h1.48Z" transform="translate(-294.48 -271.16)"/><path class="cls-2" d="M307.61,468.13q.19.48.37,1,.18-.5.38-1t.45-.93l8.73-15.86a1,1,0,0,1,.49-.5,2.25,2.25,0,0,1,.72-.09h2.57v25.79h-3.06v-19q0-.38,0-.81t.05-.88L309.49,472a1.39,1.39,0,0,1-1.26.81h-.5a1.39,1.39,0,0,1-1.26-.81l-9-16.18q.05.47.08.92c0,.3,0,.58,0,.83v19h-3.06V450.75h2.57a2.25,2.25,0,0,1,.72.09,1,1,0,0,1,.49.5l8.91,15.88A6.74,6.74,0,0,1,307.61,468.13Z" transform="translate(-294.48 -271.16)"/><path class="cls-2" d="M340.49,476.54h-1.42a1.7,1.7,0,0,1-.76-.14.8.8,0,0,1-.38-.61l-.36-1.69q-.72.65-1.4,1.16a8.08,8.08,0,0,1-1.44.86,7.5,7.5,0,0,1-1.61.53,9.3,9.3,0,0,1-1.9.18,6.47,6.47,0,0,1-2-.3,4.52,4.52,0,0,1-1.61-.89,4.26,4.26,0,0,1-1.09-1.51,5.29,5.29,0,0,1-.41-2.16,4,4,0,0,1,.59-2.09,5.22,5.22,0,0,1,1.92-1.78,12.46,12.46,0,0,1,3.46-1.27,23.58,23.58,0,0,1,5.24-.5V464.9a5,5,0,0,0-.91-3.23,3.3,3.3,0,0,0-2.69-1.1,5.7,5.7,0,0,0-2,.3,7.47,7.47,0,0,0-1.39.67q-.59.37-1,.67a1.45,1.45,0,0,1-.84.3,1,1,0,0,1-.57-.17,1.31,1.31,0,0,1-.39-.42l-.58-1a10.42,10.42,0,0,1,3.26-2.18,10.07,10.07,0,0,1,3.87-.72,6.9,6.9,0,0,1,2.72.5,5.58,5.58,0,0,1,2,1.4,6,6,0,0,1,1.22,2.18,9.07,9.07,0,0,1,.41,2.81Zm-8.32-2a6.53,6.53,0,0,0,1.55-.17,6.12,6.12,0,0,0,1.32-.49,7.05,7.05,0,0,0,1.19-.76,10.24,10.24,0,0,0,1.11-1v-3.76a21.55,21.55,0,0,0-3.76.28,10.52,10.52,0,0,0-2.52.73,3.52,3.52,0,0,0-1.41,1.07,2.31,2.31,0,0,0-.44,1.38,3.05,3.05,0,0,0,.23,1.25,2.37,2.37,0,0,0,.63.86,2.46,2.46,0,0,0,.94.49A4.25,4.25,0,0,0,332.17,474.58Z" transform="translate(-294.48 -271.16)"/><path class="cls-2" d="M345.35,476.54V458.31h1.84a1,1,0,0,1,.72.2,1.22,1.22,0,0,1,.27.68l.22,2.84a8.35,8.35,0,0,1,2.31-3,5.45,5.45,0,0,1,4.6-.9,4.78,4.78,0,0,1,1.13.48L356,461a.54.54,0,0,1-.56.45,2.78,2.78,0,0,1-.77-.17,4.91,4.91,0,0,0-1.46-.17,4.13,4.13,0,0,0-2.8,1,7.29,7.29,0,0,0-1.88,2.83v11.61Z" transform="translate(-294.48 -271.16)"/><path class="cls-2" d="M363.19,450v15.61H364a1.53,1.53,0,0,0,.59-.1,1.67,1.67,0,0,0,.52-.41l5.76-6.17a3.14,3.14,0,0,1,.54-.47,1.28,1.28,0,0,1,.72-.18h2.92l-6.71,7.15a6.38,6.38,0,0,1-.5.54,2.94,2.94,0,0,1-.55.41,3.3,3.3,0,0,1,.58.5,4.6,4.6,0,0,1,.5.64l7.13,9h-2.88a1.38,1.38,0,0,1-.68-.15,1.76,1.76,0,0,1-.53-.48l-6-7.47a1.4,1.4,0,0,0-.54-.5,2.14,2.14,0,0,0-.81-.12h-.9v8.71H360V450Z" transform="translate(-294.48 -271.16)"/><path class="cls-2" d="M390.47,476.54a.82.82,0,0,1-.86-.67l-.29-2.21a9.61,9.61,0,0,1-2.67,2.28,6.86,6.86,0,0,1-3.45.85,6.59,6.59,0,0,1-2.84-.6,5.9,5.9,0,0,1-2.18-1.77,8.44,8.44,0,0,1-1.39-2.92,15,15,0,0,1-.49-4,12.59,12.59,0,0,1,.54-3.75,9.15,9.15,0,0,1,1.56-3,7.14,7.14,0,0,1,5.79-2.74,6.6,6.6,0,0,1,2.86.57,6.87,6.87,0,0,1,2.12,1.59V450h3.2v26.51Zm-6.21-2.34a5.17,5.17,0,0,0,2.75-.72,7.93,7.93,0,0,0,2.17-2v-8.82a5.07,5.07,0,0,0-1.94-1.67,5.59,5.59,0,0,0-2.33-.48A4.61,4.61,0,0,0,381,462.3a8.49,8.49,0,0,0-1.37,5.18,13.17,13.17,0,0,0,.31,3.05,5.86,5.86,0,0,0,.9,2.09,3.54,3.54,0,0,0,1.46,1.2A4.9,4.9,0,0,0,384.26,474.2Z" transform="translate(-294.48 -271.16)"/><path class="cls-2" d="M405.14,458a9.38,9.38,0,0,1,3.61.67,7.61,7.61,0,0,1,2.74,1.89,8.37,8.37,0,0,1,1.73,3,12.81,12.81,0,0,1,0,7.77,8.38,8.38,0,0,1-1.73,3,7.5,7.5,0,0,1-2.74,1.88,10.24,10.24,0,0,1-7.22,0,7.59,7.59,0,0,1-2.75-1.88,8.4,8.4,0,0,1-1.75-3,12.62,12.62,0,0,1,0-7.77,8.4,8.4,0,0,1,1.75-3,7.7,7.7,0,0,1,2.75-1.89A9.38,9.38,0,0,1,405.14,458Zm0,16.27a4.68,4.68,0,0,0,4-1.81,10.29,10.29,0,0,0,0-10.12,4.67,4.67,0,0,0-4-1.82,5.6,5.6,0,0,0-2.38.47,4.45,4.45,0,0,0-1.68,1.35,6,6,0,0,0-1,2.17,12.81,12.81,0,0,0,0,5.8,5.9,5.9,0,0,0,1,2.15,4.48,4.48,0,0,0,1.68,1.34A5.6,5.6,0,0,0,405.14,474.29Z" transform="translate(-294.48 -271.16)"/><path class="cls-2" d="M415.4,458.31h2.52a1,1,0,0,1,.65.2,1,1,0,0,1,.34.47l3.49,11.74c.1.43.19.85.27,1.25s.16.81.22,1.21q.14-.61.32-1.21l.38-1.25,3.85-11.81a1,1,0,0,1,.31-.45.88.88,0,0,1,.57-.18h1.39a.94.94,0,0,1,.59.18.93.93,0,0,1,.32.45l3.76,11.81q.2.63.35,1.24l.3,1.21q.09-.59.23-1.24t.31-1.21L439.15,459a.93.93,0,0,1,.34-.48,1,1,0,0,1,.59-.19h2.41l-5.9,18.23h-2.54q-.47,0-.65-.61l-4-12.37a6.94,6.94,0,0,1-.23-.84l-.18-.84-.18.85a6.85,6.85,0,0,1-.23.85l-4.09,12.35a.75.75,0,0,1-.74.61h-2.41Z" transform="translate(-294.48 -271.16)"/><path class="cls-2" d="M445.35,476.54V458.31h1.91a.82.82,0,0,1,.86.67l.25,2a10.24,10.24,0,0,1,2.66-2.12,6.9,6.9,0,0,1,3.39-.81,6.6,6.6,0,0,1,2.64.5,5.11,5.11,0,0,1,1.91,1.4,6.2,6.2,0,0,1,1.16,2.19,9.51,9.51,0,0,1,.4,2.83v11.61h-3.2V464.93a4.91,4.91,0,0,0-.95-3.21,3.53,3.53,0,0,0-2.89-1.14,5.38,5.38,0,0,0-2.66.68,8.74,8.74,0,0,0-2.28,1.85v13.43Z" transform="translate(-294.48 -271.16)"/><path class="cls-2" d="M476.66,466.89v9.65h-3.47V450.75h7.61a14.26,14.26,0,0,1,4.26.57,8.19,8.19,0,0,1,3,1.61,6.49,6.49,0,0,1,1.77,2.52,8.87,8.87,0,0,1,.58,3.29,8.4,8.4,0,0,1-.63,3.29,7.09,7.09,0,0,1-1.84,2.57,8.58,8.58,0,0,1-3,1.68,13,13,0,0,1-4.12.6Zm0-2.77h4.14a8,8,0,0,0,2.64-.4,5.41,5.41,0,0,0,1.92-1.11,4.6,4.6,0,0,0,1.17-1.7,5.82,5.82,0,0,0,.4-2.18,5,5,0,0,0-1.52-3.85,6.64,6.64,0,0,0-4.6-1.39h-4.14Z" transform="translate(-294.48 -271.16)"/><path class="cls-2" d="M494.31,476.54V458.31h1.84a1,1,0,0,1,.72.2,1.22,1.22,0,0,1,.27.68l.22,2.84a8.35,8.35,0,0,1,2.31-3,5.45,5.45,0,0,1,4.6-.9,4.78,4.78,0,0,1,1.13.48L505,461a.54.54,0,0,1-.56.45,2.78,2.78,0,0,1-.77-.17,4.91,4.91,0,0,0-1.46-.17,4.13,4.13,0,0,0-2.8,1,7.29,7.29,0,0,0-1.88,2.83v11.61Z" transform="translate(-294.48 -271.16)"/><path class="cls-2" d="M516,458a8.14,8.14,0,0,1,3,.55,6.79,6.79,0,0,1,2.39,1.58,7.22,7.22,0,0,1,1.57,2.56,9.88,9.88,0,0,1,.57,3.46,2.09,2.09,0,0,1-.16,1,.67.67,0,0,1-.61.25H510.69a10.08,10.08,0,0,0,.47,3,6.16,6.16,0,0,0,1.19,2.13,4.75,4.75,0,0,0,1.8,1.28,6.18,6.18,0,0,0,2.34.42,6.85,6.85,0,0,0,2.08-.28,9.76,9.76,0,0,0,1.5-.6,11.36,11.36,0,0,0,1.05-.6,1.4,1.4,0,0,1,.73-.28.71.71,0,0,1,.61.31l.9,1.17a6.11,6.11,0,0,1-1.42,1.25,8.92,8.92,0,0,1-1.77.87,11.33,11.33,0,0,1-2,.51,11.9,11.9,0,0,1-2,.17,9.28,9.28,0,0,1-3.48-.64,7.64,7.64,0,0,1-2.75-1.87,8.59,8.59,0,0,1-1.81-3.05,12.41,12.41,0,0,1-.65-4.18,10.62,10.62,0,0,1,.58-3.56,8.38,8.38,0,0,1,1.68-2.87,7.74,7.74,0,0,1,2.68-1.91A8.8,8.8,0,0,1,516,458Zm.07,2.36a4.92,4.92,0,0,0-3.65,1.34,6.31,6.31,0,0,0-1.66,3.72h9.92a6.5,6.5,0,0,0-.31-2,4.57,4.57,0,0,0-.9-1.6,4,4,0,0,0-1.45-1A4.89,4.89,0,0,0,516.11,460.38Z" transform="translate(-294.48 -271.16)"/><path class="cls-2" d="M538.13,461.31a.71.71,0,0,1-.67.4,1.24,1.24,0,0,1-.61-.2q-.34-.2-.84-.44a7.82,7.82,0,0,0-1.18-.45,5.64,5.64,0,0,0-1.62-.21,4.79,4.79,0,0,0-1.46.21,3.5,3.5,0,0,0-1.11.57,2.5,2.5,0,0,0-.7.84,2.24,2.24,0,0,0-.24,1,1.73,1.73,0,0,0,.4,1.17,3.52,3.52,0,0,0,1.07.81,9.27,9.27,0,0,0,1.51.6l1.74.56q.89.3,1.74.66a6.34,6.34,0,0,1,1.51.9,4.12,4.12,0,0,1,1.07,1.32,4,4,0,0,1,.41,1.88,6,6,0,0,1-.45,2.33,5.1,5.1,0,0,1-1.33,1.85,6.43,6.43,0,0,1-2.16,1.23,8.88,8.88,0,0,1-3,.45,9.2,9.2,0,0,1-3.46-.62,8.76,8.76,0,0,1-2.63-1.59l.76-1.22a1.1,1.1,0,0,1,.34-.36,1,1,0,0,1,.52-.13,1.21,1.21,0,0,1,.68.25q.36.25.87.56a6.69,6.69,0,0,0,1.24.56,5.66,5.66,0,0,0,1.83.25,5,5,0,0,0,1.64-.24,3.44,3.44,0,0,0,1.17-.66,2.6,2.6,0,0,0,.69-1,3,3,0,0,0,.23-1.15,1.91,1.91,0,0,0-.4-1.25,3.44,3.44,0,0,0-1.07-.85,8.84,8.84,0,0,0-1.52-.61l-1.75-.55q-.89-.29-1.75-.66a6.13,6.13,0,0,1-1.52-.93,4.18,4.18,0,0,1-1.07-1.38,4.45,4.45,0,0,1-.4-2,4.85,4.85,0,0,1,.43-2,4.91,4.91,0,0,1,1.26-1.69,6.2,6.2,0,0,1,2-1.16,8.13,8.13,0,0,1,2.75-.43,8.71,8.71,0,0,1,3.23.57,7.66,7.66,0,0,1,2.48,1.56Z" transform="translate(-294.48 -271.16)"/><path class="cls-2" d="M550.53,458a8.14,8.14,0,0,1,3,.55,6.79,6.79,0,0,1,2.39,1.58,7.22,7.22,0,0,1,1.57,2.56,9.88,9.88,0,0,1,.57,3.46,2.09,2.09,0,0,1-.16,1,.67.67,0,0,1-.61.25H545.18a10.08,10.08,0,0,0,.47,3,6.16,6.16,0,0,0,1.19,2.13,4.75,4.75,0,0,0,1.8,1.28,6.18,6.18,0,0,0,2.34.42,6.85,6.85,0,0,0,2.08-.28,9.76,9.76,0,0,0,1.5-.6,11.36,11.36,0,0,0,1.05-.6,1.4,1.4,0,0,1,.73-.28.71.71,0,0,1,.61.31l.9,1.17a6.11,6.11,0,0,1-1.42,1.25,8.92,8.92,0,0,1-1.77.87,11.33,11.33,0,0,1-2,.51,11.9,11.9,0,0,1-2,.17,9.28,9.28,0,0,1-3.48-.64,7.64,7.64,0,0,1-2.75-1.87,8.59,8.59,0,0,1-1.81-3.05,12.41,12.41,0,0,1-.65-4.18,10.62,10.62,0,0,1,.58-3.56,8.38,8.38,0,0,1,1.68-2.87,7.74,7.74,0,0,1,2.68-1.91A8.8,8.8,0,0,1,550.53,458Zm.07,2.36a4.92,4.92,0,0,0-3.65,1.34,6.31,6.31,0,0,0-1.66,3.72h9.92a6.5,6.5,0,0,0-.31-2,4.57,4.57,0,0,0-.9-1.6,4,4,0,0,0-1.45-1A4.89,4.89,0,0,0,550.6,460.38Z" transform="translate(-294.48 -271.16)"/><path class="cls-2" d="M562.17,476.54V458.31h1.91a.82.82,0,0,1,.86.67l.25,2a10.24,10.24,0,0,1,2.66-2.12,6.9,6.9,0,0,1,3.39-.81,6.6,6.6,0,0,1,2.64.5,5.11,5.11,0,0,1,1.91,1.4A6.2,6.2,0,0,1,577,462.1a9.51,9.51,0,0,1,.4,2.83v11.61h-3.2V464.93a4.91,4.91,0,0,0-.95-3.21,3.53,3.53,0,0,0-2.89-1.14,5.38,5.38,0,0,0-2.66.68,8.74,8.74,0,0,0-2.28,1.85v13.43Z" transform="translate(-294.48 -271.16)"/><path class="cls-2" d="M587.71,476.83a4.4,4.4,0,0,1-3.32-1.21,4.81,4.81,0,0,1-1.16-3.47V461H581a.71.71,0,0,1-.49-.17.66.66,0,0,1-.2-.53V459l3-.38.74-5.63a.68.68,0,0,1,.23-.44.75.75,0,0,1,.5-.17h1.62v6.28h5.22V461h-5.22v10.94a2.33,2.33,0,0,0,.56,1.71,2,2,0,0,0,1.44.56,2.55,2.55,0,0,0,.87-.13,3.8,3.8,0,0,0,.64-.3l.46-.3a.6.6,0,0,1,.33-.13.55.55,0,0,1,.45.31l.94,1.53a6,6,0,0,1-2,1.21A6.79,6.79,0,0,1,587.71,476.83Z" transform="translate(-294.48 -271.16)"/><path class="cls-2" d="M609,476.54h-1.42a1.7,1.7,0,0,1-.76-.14.8.8,0,0,1-.38-.61l-.36-1.69q-.72.65-1.4,1.16a8.08,8.08,0,0,1-1.44.86,7.51,7.51,0,0,1-1.61.53,9.31,9.31,0,0,1-1.9.18,6.47,6.47,0,0,1-2-.3,4.52,4.52,0,0,1-1.61-.89,4.26,4.26,0,0,1-1.09-1.51,5.29,5.29,0,0,1-.41-2.16,4,4,0,0,1,.59-2.09,5.22,5.22,0,0,1,1.92-1.78,12.47,12.47,0,0,1,3.46-1.27,23.58,23.58,0,0,1,5.24-.5V464.9a5,5,0,0,0-.91-3.23,3.3,3.3,0,0,0-2.69-1.1,5.7,5.7,0,0,0-2,.3,7.45,7.45,0,0,0-1.39.67q-.58.37-1,.67a1.45,1.45,0,0,1-.84.3,1,1,0,0,1-.57-.17,1.3,1.3,0,0,1-.39-.42l-.58-1a10.41,10.41,0,0,1,3.26-2.18,10.07,10.07,0,0,1,3.87-.72,6.91,6.91,0,0,1,2.72.5,5.58,5.58,0,0,1,2,1.4,6,6,0,0,1,1.22,2.18,9.09,9.09,0,0,1,.41,2.81Zm-8.32-2a6.53,6.53,0,0,0,1.55-.17,6.13,6.13,0,0,0,1.32-.49,7,7,0,0,0,1.19-.76,10.24,10.24,0,0,0,1.11-1v-3.76a21.53,21.53,0,0,0-3.76.28,10.53,10.53,0,0,0-2.52.73,3.52,3.52,0,0,0-1.41,1.07,2.31,2.31,0,0,0-.44,1.38,3.06,3.06,0,0,0,.23,1.25,2.36,2.36,0,0,0,.63.86,2.45,2.45,0,0,0,.94.49A4.25,4.25,0,0,0,600.69,474.58Z" transform="translate(-294.48 -271.16)"/><path class="cls-2" d="M619.39,476.83a4.4,4.4,0,0,1-3.32-1.21,4.81,4.81,0,0,1-1.16-3.47V461h-2.2a.72.72,0,0,1-.49-.17.66.66,0,0,1-.2-.53V459l3-.38.74-5.63a.69.69,0,0,1,.23-.44.75.75,0,0,1,.5-.17h1.62v6.28h5.22V461h-5.22v10.94a2.33,2.33,0,0,0,.56,1.71,2,2,0,0,0,1.44.56,2.55,2.55,0,0,0,.87-.13,3.76,3.76,0,0,0,.64-.3l.46-.3a.6.6,0,0,1,.33-.13.55.55,0,0,1,.45.31l.94,1.53a6,6,0,0,1-2,1.21A6.79,6.79,0,0,1,619.39,476.83Z" transform="translate(-294.48 -271.16)"/><path class="cls-2" d="M631.58,452.58a2,2,0,0,1-.19.87,2.52,2.52,0,0,1-.5.72,2.35,2.35,0,0,1-.73.5,2.19,2.19,0,0,1-.88.18,2.12,2.12,0,0,1-.87-.18,2.4,2.4,0,0,1-1.22-1.21,2.14,2.14,0,0,1-.18-.87,2.26,2.26,0,0,1,.18-.89,2.31,2.31,0,0,1,.5-.74,2.37,2.37,0,0,1,.72-.5,2.12,2.12,0,0,1,.87-.18,2.19,2.19,0,0,1,.88.18,2.35,2.35,0,0,1,.73.5,2.44,2.44,0,0,1,.5.74A2.16,2.16,0,0,1,631.58,452.58Zm-.72,5.72v18.23h-3.2V458.31Z" transform="translate(-294.48 -271.16)"/><path class="cls-2" d="M643.89,458a9.38,9.38,0,0,1,3.61.67,7.61,7.61,0,0,1,2.74,1.89,8.37,8.37,0,0,1,1.73,3,12.81,12.81,0,0,1,0,7.77,8.38,8.38,0,0,1-1.73,3,7.51,7.51,0,0,1-2.74,1.88,10.24,10.24,0,0,1-7.22,0,7.59,7.59,0,0,1-2.75-1.88,8.4,8.4,0,0,1-1.75-3,12.62,12.62,0,0,1,0-7.77,8.39,8.39,0,0,1,1.75-3,7.69,7.69,0,0,1,2.75-1.89A9.37,9.37,0,0,1,643.89,458Zm0,16.27a4.68,4.68,0,0,0,4-1.81,10.29,10.29,0,0,0,0-10.12,4.67,4.67,0,0,0-4-1.82,5.6,5.6,0,0,0-2.38.47,4.46,4.46,0,0,0-1.68,1.35,6,6,0,0,0-1,2.17,12.81,12.81,0,0,0,0,5.8,5.9,5.9,0,0,0,1,2.15,4.49,4.49,0,0,0,1.68,1.34A5.6,5.6,0,0,0,643.89,474.29Z" transform="translate(-294.48 -271.16)"/><path class="cls-2" d="M656.53,476.54V458.31h1.91a.82.82,0,0,1,.86.67l.25,2a10.25,10.25,0,0,1,2.65-2.12,6.91,6.91,0,0,1,3.39-.81,6.6,6.6,0,0,1,2.64.5,5.12,5.12,0,0,1,1.91,1.4,6.22,6.22,0,0,1,1.16,2.19,9.52,9.52,0,0,1,.4,2.83v11.61h-3.2V464.93a4.91,4.91,0,0,0-.94-3.21,3.53,3.53,0,0,0-2.89-1.14,5.38,5.38,0,0,0-2.65.68,8.73,8.73,0,0,0-2.28,1.85v13.43Z" transform="translate(-294.48 -271.16)"/><path class="cls-2" d="M687,461.31a.71.71,0,0,1-.67.4,1.24,1.24,0,0,1-.61-.2q-.34-.2-.84-.44a7.85,7.85,0,0,0-1.18-.45,5.65,5.65,0,0,0-1.62-.21,4.79,4.79,0,0,0-1.46.21,3.48,3.48,0,0,0-1.11.57,2.5,2.5,0,0,0-.7.84,2.24,2.24,0,0,0-.24,1,1.73,1.73,0,0,0,.41,1.17A3.52,3.52,0,0,0,680,465a9.23,9.23,0,0,0,1.51.6l1.74.56q.89.3,1.74.66a6.34,6.34,0,0,1,1.51.9,4.13,4.13,0,0,1,1.07,1.32A4.05,4.05,0,0,1,688,471a6,6,0,0,1-.45,2.33,5.09,5.09,0,0,1-1.33,1.85,6.43,6.43,0,0,1-2.16,1.23,8.88,8.88,0,0,1-3,.45,9.21,9.21,0,0,1-3.46-.62,8.76,8.76,0,0,1-2.63-1.59l.76-1.22a1.1,1.1,0,0,1,.34-.36,1,1,0,0,1,.52-.13,1.21,1.21,0,0,1,.68.25q.36.25.87.56a6.69,6.69,0,0,0,1.24.56,5.66,5.66,0,0,0,1.83.25,5,5,0,0,0,1.64-.24,3.44,3.44,0,0,0,1.17-.66,2.61,2.61,0,0,0,.69-1,3,3,0,0,0,.22-1.15,1.91,1.91,0,0,0-.41-1.25,3.43,3.43,0,0,0-1.07-.85,8.85,8.85,0,0,0-1.52-.61l-1.75-.55q-.89-.29-1.75-.66a6.14,6.14,0,0,1-1.52-.93,4.18,4.18,0,0,1-1.07-1.38,4.46,4.46,0,0,1-.41-2,4.85,4.85,0,0,1,.43-2,4.92,4.92,0,0,1,1.26-1.69,6.19,6.19,0,0,1,2-1.16A8.13,8.13,0,0,1,682,458a8.71,8.71,0,0,1,3.23.57,7.67,7.67,0,0,1,2.47,1.56Z" transform="translate(-294.48 -271.16)"/><path class="cls-2" d="M699.83,476.54V461l-2-.23a1.6,1.6,0,0,1-.62-.28A.65.65,0,0,1,697,460v-1.31h2.88V456.9a8.12,8.12,0,0,1,.44-2.78,5.64,5.64,0,0,1,1.26-2.05,5.34,5.34,0,0,1,2-1.27,7.34,7.34,0,0,1,2.59-.43,6.91,6.91,0,0,1,2.27.36l-.07,1.6a.41.41,0,0,1-.31.43,3.47,3.47,0,0,1-.81.07h-.56a4.93,4.93,0,0,0-1.5.22,2.84,2.84,0,0,0-1.16.7,3.19,3.19,0,0,0-.75,1.28,6.35,6.35,0,0,0-.26,2v1.67h5.27V461h-5.17v15.55Z" transform="translate(-294.48 -271.16)"/><path class="cls-2" d="M718.63,458a9.38,9.38,0,0,1,3.61.67,7.61,7.61,0,0,1,2.74,1.89,8.37,8.37,0,0,1,1.73,3,12.81,12.81,0,0,1,0,7.77,8.38,8.38,0,0,1-1.73,3,7.51,7.51,0,0,1-2.74,1.88,10.24,10.24,0,0,1-7.22,0,7.59,7.59,0,0,1-2.75-1.88,8.4,8.4,0,0,1-1.75-3,12.62,12.62,0,0,1,0-7.77,8.39,8.39,0,0,1,1.75-3,7.69,7.69,0,0,1,2.75-1.89A9.37,9.37,0,0,1,718.63,458Zm0,16.27a4.68,4.68,0,0,0,4-1.81,10.29,10.29,0,0,0,0-10.12,4.67,4.67,0,0,0-4-1.82,5.6,5.6,0,0,0-2.38.47,4.46,4.46,0,0,0-1.68,1.35,6,6,0,0,0-1,2.17,12.81,12.81,0,0,0,0,5.8,5.9,5.9,0,0,0,1,2.15,4.49,4.49,0,0,0,1.68,1.34A5.6,5.6,0,0,0,718.63,474.29Z" transform="translate(-294.48 -271.16)"/><path class="cls-2" d="M731.26,476.54V458.31h1.84a1,1,0,0,1,.72.2,1.22,1.22,0,0,1,.27.68l.22,2.84a8.35,8.35,0,0,1,2.31-3,5.45,5.45,0,0,1,4.6-.9,4.76,4.76,0,0,1,1.13.48l-.41,2.39a.54.54,0,0,1-.56.45,2.8,2.8,0,0,1-.77-.17,4.9,4.9,0,0,0-1.46-.17,4.13,4.13,0,0,0-2.8,1,7.29,7.29,0,0,0-1.88,2.83v11.61Z" transform="translate(-294.48 -271.16)"/><path class="cls-2" d="M769.12,450.75v2.84H756.73v8.57h10v2.74h-10v8.8h12.38v2.84H753.22V450.75Z" transform="translate(-294.48 -271.16)"/><path class="cls-2" d="M771.33,458.31H774a1,1,0,0,1,.63.2,1.13,1.13,0,0,1,.36.47l4.63,11.74a8.87,8.87,0,0,1,.4,1.3q.14.65.27,1.28.14-.63.31-1.28a10.88,10.88,0,0,1,.41-1.3L785.64,459a1.07,1.07,0,0,1,.35-.48,1,1,0,0,1,.6-.19h2.5l-7.43,18.23h-2.9Z" transform="translate(-294.48 -271.16)"/><path class="cls-2" d="M798.82,458a8.14,8.14,0,0,1,3,.55,6.78,6.78,0,0,1,2.39,1.58,7.22,7.22,0,0,1,1.58,2.56,9.88,9.88,0,0,1,.57,3.46,2.1,2.1,0,0,1-.16,1,.67.67,0,0,1-.61.25H793.47a10.05,10.05,0,0,0,.47,3,6.16,6.16,0,0,0,1.19,2.13,4.74,4.74,0,0,0,1.8,1.28,6.17,6.17,0,0,0,2.34.42,6.85,6.85,0,0,0,2.08-.28,9.76,9.76,0,0,0,1.5-.6,11.34,11.34,0,0,0,1.05-.6,1.4,1.4,0,0,1,.73-.28.71.71,0,0,1,.61.31l.9,1.17a6.1,6.1,0,0,1-1.42,1.25,8.88,8.88,0,0,1-1.77.87,11.32,11.32,0,0,1-2,.51,11.92,11.92,0,0,1-2,.17,9.28,9.28,0,0,1-3.48-.64,7.65,7.65,0,0,1-2.75-1.87,8.58,8.58,0,0,1-1.81-3.05,12.39,12.39,0,0,1-.65-4.18,10.63,10.63,0,0,1,.58-3.56,8.39,8.39,0,0,1,1.68-2.87,7.74,7.74,0,0,1,2.68-1.91A8.8,8.8,0,0,1,798.82,458Zm.07,2.36a4.92,4.92,0,0,0-3.65,1.34,6.31,6.31,0,0,0-1.66,3.72h9.92a6.49,6.49,0,0,0-.31-2,4.57,4.57,0,0,0-.9-1.6,4,4,0,0,0-1.45-1A4.89,4.89,0,0,0,798.89,460.38Z" transform="translate(-294.48 -271.16)"/><path class="cls-2" d="M810.46,476.54V458.31h1.84a1,1,0,0,1,.72.2,1.22,1.22,0,0,1,.27.68l.22,2.84a8.35,8.35,0,0,1,2.31-3,5.45,5.45,0,0,1,4.6-.9,4.76,4.76,0,0,1,1.13.48l-.41,2.39a.54.54,0,0,1-.56.45,2.8,2.8,0,0,1-.77-.17,4.9,4.9,0,0,0-1.46-.17,4.13,4.13,0,0,0-2.8,1,7.29,7.29,0,0,0-1.88,2.83v11.61Z" transform="translate(-294.48 -271.16)"/><path class="cls-2" d="M830.32,481.92a1.66,1.66,0,0,1-.4.58,1.1,1.1,0,0,1-.75.22h-2.38l3.33-7.24-7.52-17.17h2.77a1,1,0,0,1,.65.21,1.29,1.29,0,0,1,.34.46l4.88,11.48a8.24,8.24,0,0,1,.28.79c.08.26.15.53.21.81l.25-.81c.08-.26.18-.53.29-.81L837,459a1,1,0,0,1,.37-.48.94.94,0,0,1,.57-.19h2.56Z" transform="translate(-294.48 -271.16)"/><path class="cls-2" d="M850.31,458a9.38,9.38,0,0,1,3.61.67,7.61,7.61,0,0,1,2.74,1.89,8.37,8.37,0,0,1,1.73,3,12.81,12.81,0,0,1,0,7.77,8.38,8.38,0,0,1-1.73,3,7.51,7.51,0,0,1-2.74,1.88,10.24,10.24,0,0,1-7.22,0,7.59,7.59,0,0,1-2.75-1.88,8.4,8.4,0,0,1-1.75-3,12.62,12.62,0,0,1,0-7.77,8.39,8.39,0,0,1,1.75-3,7.69,7.69,0,0,1,2.75-1.89A9.37,9.37,0,0,1,850.31,458Zm0,16.27a4.68,4.68,0,0,0,4-1.81,10.29,10.29,0,0,0,0-10.12,4.67,4.67,0,0,0-4-1.82,5.6,5.6,0,0,0-2.38.47,4.46,4.46,0,0,0-1.68,1.35,6,6,0,0,0-1,2.17,12.81,12.81,0,0,0,0,5.8,5.9,5.9,0,0,0,1,2.15,4.49,4.49,0,0,0,1.68,1.34A5.6,5.6,0,0,0,850.31,474.29Z" transform="translate(-294.48 -271.16)"/><path class="cls-2" d="M863,476.54V458.31h1.91a.82.82,0,0,1,.86.67l.25,2a10.25,10.25,0,0,1,2.65-2.12A6.91,6.91,0,0,1,872,458a6.6,6.6,0,0,1,2.64.5,5.12,5.12,0,0,1,1.91,1.4,6.22,6.22,0,0,1,1.16,2.19,9.52,9.52,0,0,1,.4,2.83v11.61h-3.2V464.93a4.91,4.91,0,0,0-.94-3.21,3.53,3.53,0,0,0-2.89-1.14,5.38,5.38,0,0,0-2.65.68,8.73,8.73,0,0,0-2.28,1.85v13.43Z" transform="translate(-294.48 -271.16)"/><path class="cls-2" d="M890.18,458a8.14,8.14,0,0,1,3,.55,6.78,6.78,0,0,1,2.39,1.58,7.22,7.22,0,0,1,1.58,2.56,9.88,9.88,0,0,1,.57,3.46,2.1,2.1,0,0,1-.16,1,.67.67,0,0,1-.61.25H884.84a10.05,10.05,0,0,0,.47,3,6.16,6.16,0,0,0,1.19,2.13,4.74,4.74,0,0,0,1.8,1.28,6.17,6.17,0,0,0,2.34.42,6.85,6.85,0,0,0,2.08-.28,9.76,9.76,0,0,0,1.5-.6,11.34,11.34,0,0,0,1.05-.6,1.4,1.4,0,0,1,.73-.28.71.71,0,0,1,.61.31l.9,1.17a6.1,6.1,0,0,1-1.42,1.25,8.88,8.88,0,0,1-1.77.87,11.32,11.32,0,0,1-2,.51,11.92,11.92,0,0,1-2,.17,9.28,9.28,0,0,1-3.48-.64,7.65,7.65,0,0,1-2.75-1.87,8.58,8.58,0,0,1-1.81-3.05,12.39,12.39,0,0,1-.65-4.18,10.63,10.63,0,0,1,.58-3.56,8.39,8.39,0,0,1,1.68-2.87,7.74,7.74,0,0,1,2.68-1.91A8.8,8.8,0,0,1,890.18,458Zm.07,2.36a4.92,4.92,0,0,0-3.65,1.34,6.31,6.31,0,0,0-1.66,3.72h9.92a6.49,6.49,0,0,0-.31-2,4.57,4.57,0,0,0-.9-1.6,4,4,0,0,0-1.45-1A4.89,4.89,0,0,0,890.26,460.38Z" transform="translate(-294.48 -271.16)"/><path class="cls-1" d="M479.95,352.3A39.47,39.47,0,0,0,498,348.4V331.83h-11.4a3.56,3.56,0,0,1-2.58-.91,3,3,0,0,1-.94-2.24V319.1h30.3V356a50,50,0,0,1-7.21,4.38,46,46,0,0,1-8,3.06,61.37,61.37,0,0,1-9.1,1.8,85.74,85.74,0,0,1-10.46.6,47.5,47.5,0,0,1-18.33-3.46,43,43,0,0,1-24-24.38,49.83,49.83,0,0,1-3.43-18.71,51.45,51.45,0,0,1,3.34-18.84,41.48,41.48,0,0,1,24.38-24.32,53.9,53.9,0,0,1,19.66-3.4A51.25,51.25,0,0,1,499.51,276a44.54,44.54,0,0,1,13.83,8.6l-4.91,7.69a4.37,4.37,0,0,1-3.84,2.33,5.71,5.71,0,0,1-3.09-1q-2-1.2-4.13-2.39a28.08,28.08,0,0,0-4.66-2.08,38.1,38.1,0,0,0-5.73-1.45,42.18,42.18,0,0,0-7.34-.57,31.45,31.45,0,0,0-12.19,2.27,25.79,25.79,0,0,0-9.29,6.49A29.24,29.24,0,0,0,452.23,306a39.74,39.74,0,0,0-2.08,13.23,41.32,41.32,0,0,0,2.21,14,29.39,29.39,0,0,0,6.17,10.36,26.58,26.58,0,0,0,9.45,6.46A31.38,31.38,0,0,0,479.95,352.3Z" transform="translate(-294.48 -271.16)"/><path class="cls-1" d="M547.23,281.3a8.87,8.87,0,0,1-.82,3.78,10.27,10.27,0,0,1-5.35,5.2,9.75,9.75,0,0,1-3.91.79,9.37,9.37,0,0,1-3.81-.79,10.08,10.08,0,0,1-3.12-2.11,10.2,10.2,0,0,1-2.11-3.09,9.15,9.15,0,0,1-.79-3.78,9.75,9.75,0,0,1,.79-3.91,10,10,0,0,1,2.11-3.15,10.1,10.1,0,0,1,3.12-2.11,9.39,9.39,0,0,1,3.81-.79,9.77,9.77,0,0,1,3.91.79,10.41,10.41,0,0,1,3.18,2.11,10.18,10.18,0,0,1,2.17,3.15A9.45,9.45,0,0,1,547.23,281.3Zm-2.33,18.84v64.64H529.34V300.14Z" transform="translate(-294.48 -271.16)"/><path class="cls-1" d="M583.71,365.78q-8.38,0-12.92-4.76t-4.54-13.14v-36.1H559.7a3,3,0,0,1-3.09-3.28v-6.17l10.4-1.7L570.29,283a3.12,3.12,0,0,1,1.17-2,3.7,3.7,0,0,1,2.3-.69h8.06V300.7h17v11.09h-17v35a6.87,6.87,0,0,0,1.51,4.73,5.13,5.13,0,0,0,4,1.7,7.32,7.32,0,0,0,2.43-.35,13.32,13.32,0,0,0,1.7-.72q.72-.38,1.29-.72a2.17,2.17,0,0,1,1.13-.35,1.79,1.79,0,0,1,1.13.35,5.35,5.35,0,0,1,.94,1l4.66,7.56a23.55,23.55,0,0,1-7.81,4.28A29.09,29.09,0,0,1,583.71,365.78Z" transform="translate(-294.48 -271.16)"/><path class="cls-3" d="M629.63,332.71v32.07H612.68v-91.1h29.67a52,52,0,0,1,15.81,2.14,30.47,30.47,0,0,1,11,6,23.45,23.45,0,0,1,6.43,9.2,34.26,34.26,0,0,1-.13,23.85,25.18,25.18,0,0,1-6.62,9.48,30.79,30.79,0,0,1-11,6.17,49.07,49.07,0,0,1-15.5,2.21Zm0-13.23h12.73a25.52,25.52,0,0,0,8.13-1.17,15.1,15.1,0,0,0,5.73-3.34,13.71,13.71,0,0,0,3.4-5.29,20.26,20.26,0,0,0,1.13-7,18.38,18.38,0,0,0-1.13-6.61,13.09,13.09,0,0,0-3.4-5,15.14,15.14,0,0,0-5.73-3.18,26.9,26.9,0,0,0-8.13-1.1H629.63Z" transform="translate(-294.48 -271.16)"/><path class="cls-3" d="M708.89,281.3a8.88,8.88,0,0,1-.82,3.78,10.28,10.28,0,0,1-5.36,5.2,9.75,9.75,0,0,1-3.91.79,9.37,9.37,0,0,1-3.81-.79,10.09,10.09,0,0,1-3.12-2.11,10.2,10.2,0,0,1-2.11-3.09,9.16,9.16,0,0,1-.79-3.78,9.76,9.76,0,0,1,.79-3.91,10,10,0,0,1,2.11-3.15,10.11,10.11,0,0,1,3.12-2.11,9.39,9.39,0,0,1,3.81-.79,9.77,9.77,0,0,1,3.91.79,10.41,10.41,0,0,1,3.18,2.11,10.19,10.19,0,0,1,2.17,3.15A9.46,9.46,0,0,1,708.89,281.3Zm-2.33,18.84v64.64H691V300.14Z" transform="translate(-294.48 -271.16)"/><path class="cls-3" d="M745.36,365.78q-8.38,0-12.92-4.76t-4.54-13.14v-36.1h-6.55a3,3,0,0,1-3.09-3.28v-6.17l10.39-1.7L731.94,283a3.11,3.11,0,0,1,1.17-2,3.69,3.69,0,0,1,2.3-.69h8.06V300.7h17v11.09h-17v35a6.87,6.87,0,0,0,1.51,4.73,5.13,5.13,0,0,0,4,1.7,7.32,7.32,0,0,0,2.43-.35,13.33,13.33,0,0,0,1.7-.72q.72-.38,1.29-.72a2.17,2.17,0,0,1,1.13-.35,1.79,1.79,0,0,1,1.13.35,5.32,5.32,0,0,1,.95,1l4.66,7.56a23.56,23.56,0,0,1-7.81,4.28A29.08,29.08,0,0,1,745.36,365.78Z" transform="translate(-294.48 -271.16)"/><path class="cls-3" d="M818.32,313.81a7.77,7.77,0,0,1-1.35,1.39,3.12,3.12,0,0,1-1.92.5,4.28,4.28,0,0,1-2.33-.72q-1.13-.72-2.71-1.64a20.33,20.33,0,0,0-3.75-1.64,17.25,17.25,0,0,0-5.39-.72,16.43,16.43,0,0,0-7.18,1.48,13.61,13.61,0,0,0-5.13,4.25,19.15,19.15,0,0,0-3.06,6.71,36,36,0,0,0-1,8.91,34.93,34.93,0,0,0,1.1,9.2,19.63,19.63,0,0,0,3.18,6.77,13.69,13.69,0,0,0,5,4.16,15.27,15.27,0,0,0,6.68,1.42,16.55,16.55,0,0,0,6-.91,19,19,0,0,0,3.87-2q1.57-1.1,2.74-2a4.14,4.14,0,0,1,2.62-.91,3.16,3.16,0,0,1,2.83,1.45l4.47,5.67a28.13,28.13,0,0,1-5.61,5.07,30.33,30.33,0,0,1-6.27,3.28,31.89,31.89,0,0,1-6.71,1.73,47.67,47.67,0,0,1-6.87.5,28.68,28.68,0,0,1-11.28-2.24,26.3,26.3,0,0,1-9.23-6.52,31.39,31.39,0,0,1-6.24-10.49,40.5,40.5,0,0,1-2.3-14.14,41.11,41.11,0,0,1,2-13.2,29.88,29.88,0,0,1,6-10.52,27.58,27.58,0,0,1,9.83-7,33.87,33.87,0,0,1,13.48-2.52,32.09,32.09,0,0,1,12.69,2.33,31,31,0,0,1,9.8,6.68Z" transform="translate(-294.48 -271.16)"/><path class="cls-3" d="M833,364.78V271.16h15.56v36a33,33,0,0,1,8.32-5.8,24.1,24.1,0,0,1,10.65-2.21,23.18,23.18,0,0,1,9.39,1.8,18.55,18.55,0,0,1,6.84,5,22.17,22.17,0,0,1,4.16,7.75,33,33,0,0,1,1.42,9.92v41.14H873.75V323.64q0-5.92-2.74-9.17t-8.22-3.24a16.21,16.21,0,0,0-7.56,1.83,27.1,27.1,0,0,0-6.68,5v46.75Z" transform="translate(-294.48 -271.16)"/><path class="cls-3" d="M404.34,271.84h-68l16.07,16.07a9.06,9.06,0,0,1,5.77-.22,9.26,9.26,0,0,1,6.44,6.91,9.06,9.06,0,0,1-.38,5.14l9.84,10.56a9.21,9.21,0,1,1-5,4.94l-9.63-10.35-.35.14v27.44a9.21,9.21,0,1,1-7,0V305a9.18,9.18,0,0,1-4.83-12.34l-20.85-20.85H313.14a6.9,6.9,0,0,0-6.9,6.9V358.5a6.9,6.9,0,0,0,6.9,6.9h47.25l-4.6,23,31.47-23h17.08a6.9,6.9,0,0,0,6.9-6.9V278.74A6.9,6.9,0,0,0,404.34,271.84Z" transform="translate(-294.48 -271.16)"/></svg>